<?xml version="1.0" encoding="UTF-8" standalone="no"?>
<!-- Created with Inkscape (http://www.inkscape.org/) -->

<svg
   width="48"
   height="48"
   viewBox="0 0 12.7 12.7"
   version="1.1"
   id="svg1"
   inkscape:version="1.3.2 (091e20ef0f, 2023-11-25, custom)"
   sodipodi:docname="firefox-private-active.svg"
   xmlns:inkscape="http://www.inkscape.org/namespaces/inkscape"
   xmlns:sodipodi="http://sodipodi.sourceforge.net/DTD/sodipodi-0.dtd"
   xmlns="http://www.w3.org/2000/svg"
   xmlns:svg="http://www.w3.org/2000/svg">
  <sodipodi:namedview
     id="namedview1"
     pagecolor="#ffffff"
     bordercolor="#000000"
     borderopacity="0.25"
     inkscape:showpageshadow="2"
     inkscape:pageopacity="0.0"
     inkscape:pagecheckerboard="0"
     inkscape:deskcolor="#d1d1d1"
     inkscape:document-units="mm"
     inkscape:zoom="7.5238028"
     inkscape:cx="25.452555"
     inkscape:cy="36.683577"
     inkscape:window-width="1896"
     inkscape:window-height="1017"
     inkscape:window-x="12"
     inkscape:window-y="51"
     inkscape:window-maximized="1"
     inkscape:current-layer="layer1" />
  <defs
     id="defs1" />
  <g
     inkscape:label="Livello 1"
     inkscape:groupmode="layer"
     id="layer1">
    <path
       id="path76"
       style="fill-opacity:1;stroke:#666666;stroke-width:0.124278;stroke-opacity:1;fill:#666666"
       d="M 6.4781576 0.065629069 C 6.4775253 0.065629069 6.4763137 0.066417898 6.4755737 0.066662598 C 6.4752745 0.066756636 6.4744962 0.066915443 6.4740234 0.067179362 L 6.4735067 0.067696126 C 6.4729234 0.068027571 6.4724739 0.068511397 6.4719564 0.068729655 C 5.2436954 0.765784 4.8262197 2.0535292 4.7883382 2.6985433 C 4.8454492 2.6947533 4.9020465 2.6902751 4.9604207 2.6902751 A 2.4714385 2.3909651 0 0 1 7.1060262 3.9026042 C 7.1161139 3.9094554 7.1254881 3.9164207 7.134965 3.9232747 A 2.6660201 2.5792109 0 0 1 7.1359985 3.924825 C 7.1629115 3.944506 7.1880261 3.9642724 7.2093791 3.9832194 C 7.4872634 4.2310367 7.6588651 4.5041431 7.7597331 4.7764526 C 7.6587545 4.5044554 7.487068 4.2312668 7.2093791 3.9837362 L 7.2093791 3.9832194 C 7.1880251 3.9642724 7.1629125 3.9450218 7.1359985 3.9253418 C 7.1260185 3.9181318 7.1161254 3.9108497 7.1055094 3.9036377 A 1.6905852 1.6355374 0 0 0 5.924703 3.6261353 C 7.21848 4.2519602 7.3058029 6.0000482 6.2941895 6.8409261 C 6.4596023 6.9039156 6.6235108 6.9702387 6.7876994 7.0372965 C 7.0823614 6.9014854 7.3855616 6.7198121 7.6915202 6.4786743 L 7.6946208 6.4724731 L 7.6946208 6.4719564 L 7.6951375 6.4719564 C 8.59586 5.7538767 9.1717201 4.6919223 9.0004842 3.5956462 A 4.4349434 4.2905356 0 0 1 9.001001 3.5971965 A 4.4349434 4.2905356 0 0 1 9.0873006 3.8628133 A 4.4349434 4.2905356 0 0 1 9.1126221 3.9532471 A 4.4349434 4.2905356 0 0 1 9.2056396 4.4131673 A 4.4349434 4.2905356 0 0 1 9.2185588 4.5056681 A 4.4349434 4.2905356 0 0 1 9.2469808 4.8798055 A 4.4349434 4.2905356 0 0 1 9.2485311 5.0668742 A 4.4349434 4.2905356 0 0 1 9.1880697 5.7200643 A 4.4349434 4.2905356 0 0 1 9.1518962 5.9040324 A 4.4349434 4.2905356 0 0 1 9.1307088 5.9954997 A 4.4349434 4.2905356 0 0 1 9.1069377 6.0864502 A 4.4349434 4.2905356 0 0 1 8.8485555 6.7923503 C 8.7707256 6.9539088 8.6758338 7.1157491 8.5674357 7.2750081 C 8.8651096 7.1655855 9.1626755 7.0413701 9.4624715 6.9230916 A 4.8973903 4.7379246 0 0 0 9.6056152 6.5908122 A 4.8973903 4.7379246 0 0 0 9.7823486 5.9092 C 9.7905586 5.8480811 9.7972405 5.7874786 9.8045695 5.7257487 A 5.0363775 4.8723861 0 0 0 9.8118042 5.6642537 A 5.0363775 4.8723861 0 0 0 9.8288574 5.4782186 A 5.0363775 4.8723861 0 0 0 9.8360921 5.3541951 A 5.0363775 4.8723861 0 0 0 9.8386759 5.2921834 A 5.0363775 4.8723861 0 0 0 9.840743 5.1676432 A 5.0363775 4.8723861 0 0 0 9.8381592 4.9810913 A 5.0363775 4.8723861 0 0 0 9.8324748 4.8570679 A 5.0363775 4.8723861 0 0 0 9.8107707 4.6095378 A 5.0363775 4.8723861 0 0 0 9.7952677 4.4860311 A 5.0363775 4.8723861 0 0 0 9.7286051 4.1186117 A 5.0363775 4.8723861 0 0 0 9.6686605 3.876766 A 5.0363775 4.8723861 0 0 0 9.6516073 3.8168213 A 5.0363775 4.8723861 0 0 0 9.6335205 3.7573934 A 5.0363775 4.8723861 0 0 0 9.5957967 3.6385376 A 5.0363775 4.8723861 0 0 0 9.5751261 3.5796265 A 5.0363775 4.8723861 0 0 0 9.5327515 3.462321 A 5.0363775 4.8723861 0 0 0 9.4867594 3.346049 L 9.4862427 3.3465658 C 9.4596457 3.2846525 9.4296679 3.2223695 9.3968424 3.1600138 C 9.364017 3.0976582 9.3282224 3.0351938 9.290389 2.9739787 C 9.2525556 2.9127635 9.2126372 2.8526365 9.1710164 2.7941447 C 9.1293957 2.7356529 9.0860129 2.6788315 9.0418254 2.624646 C 8.9092628 2.4620894 8.7683081 2.3225628 8.6346151 2.2272542 C 8.5900507 2.1954847 8.5461225 2.1688043 8.5038737 2.1476725 A 5.0881817 4.9225036 0 0 1 8.7198812 2.6091431 A 5.0881817 4.9225036 0 0 1 8.8857625 3.0902507 A 5.0881817 4.9225036 0 0 1 8.9999674 3.5847941 L 8.9999674 3.589445 C 9.0000187 3.5900692 8.9999674 3.5896896 8.9999674 3.5904785 L 8.9999674 3.5920288 C 9.000105 3.5929012 9.0003476 3.5937403 9.0004842 3.5946126 A 4.4349434 4.2905356 0 0 0 8.9999674 3.5946126 L 8.9999674 3.5920288 C 8.4460425 2.2559744 7.5063642 1.7169258 6.7406738 0.5446696 C 6.7018858 0.48538448 6.6632143 0.42599307 6.6254354 0.36328532 C 6.6038284 0.32746995 6.5867289 0.29480377 6.5716919 0.2651001 A 0.89115827 0.86214096 0 0 1 6.4983114 0.077514648 A 0.01263516 0.01222375 0 0 0 6.4874593 0.065629069 A 0.01743653 0.01686877 0 0 0 6.4781576 0.065629069 z M 9.001001 3.5971965 C 9.1728852 4.6932229 8.5966817 5.7543244 7.6956543 6.4735067 L 7.6925537 6.4797078 C 7.3866302 6.7207802 7.0833872 6.9020502 6.7887329 7.0378133 C 7.1861819 7.20014 7.5828303 7.3616479 7.9845256 7.4631104 C 8.1785909 7.4128646 8.3724564 7.3467919 8.5664022 7.2755249 C 8.6749765 7.1161091 8.7696185 6.9540494 8.847522 6.7923503 A 4.4349434 4.2905356 0 0 0 9.001001 3.5971965 z M 5.9350382 1.1890747 C 5.927323 1.2313028 5.9236091 1.2760805 5.917985 1.3198161 C 5.923639 1.2761418 5.9273008 1.2312422 5.9350382 1.1890747 z M 5.9014486 1.4583089 C 5.8962835 1.5328332 5.8939668 1.6090288 5.8962809 1.6867187 C 5.8940235 1.6088889 5.8962067 1.5329525 5.9014486 1.4583089 z M 1.9513021 1.6479614 A 0.87536428 0.84686123 0 0 0 1.7874878 1.7316772 A 3.565644 3.4495417 0 0 0 1.308964 2.1285522 A 4.2757403 4.1365163 0 0 0 0.84956055 2.6587524 L 0.84956055 2.6592692 A 4.1354899 4.0008328 0 0 0 0.19223633 4.093807 C 0.19072423 4.0998881 0.12136057 4.3935378 0.091467285 4.7056559 A 3.6490361 3.5302185 0 0 0 0.059427897 5.0839274 L 0.059427897 5.1082153 A 4.8973903 4.7379246 0 0 0 0.27595215 6.4936605 A 4.8973903 4.7379246 0 0 0 0.54053548 7.1478841 A 4.8973903 4.7379246 0 0 0 1.8825724 8.7880941 A 4.8973903 4.7379246 0 0 0 2.2076172 9.0051351 C 2.3105031 8.1723667 2.769857 7.3171059 3.4767904 6.8533285 C 3.1523921 6.639249 2.9098251 6.375494 2.7445353 6.0911011 C 2.7166957 6.043201 2.6910119 5.9948331 2.6675374 5.9458903 C 2.6910196 5.9946442 2.7167182 6.0433846 2.7445353 6.0911011 C 2.9102567 6.3753739 3.1535085 6.6383664 3.4783407 6.8522949 C 3.4886475 6.8455451 3.4989354 6.8387228 3.5093465 6.8321411 C 3.1033229 6.5139031 2.8025468 6.060678 2.7553874 5.5360962 C 2.7553874 5.5360962 2.9813728 4.7211589 4.3738932 4.7211589 C 4.5233567 4.7211589 4.9486475 4.3206383 4.961971 4.1997437 A 2.4385871 2.3591834 0 0 0 4.9640381 4.1992269 C 4.9640286 4.1990347 4.9625395 4.1984 4.9624878 4.1981934 C 4.9625236 4.1977871 4.9629784 4.1970427 4.9630046 4.1966431 A 2.4385871 2.3591834 0 0 1 4.9609375 4.1971598 C 4.9423862 4.1533421 4.1065341 3.8294983 3.7775472 3.5160645 C 3.6000233 3.3467658 3.5158074 3.2651797 3.4411336 3.2039388 A 1.4644158 1.4167324 0 0 0 3.3150431 3.1109212 C 3.3144199 3.1105096 3.3136027 3.109784 3.3129761 3.1093709 A 2.2705394 2.1966075 0 0 1 3.2990234 1.9518188 A 3.6262927 3.5082156 0 0 0 2.120284 2.832902 C 2.1441647 2.8322903 2.8544944 2.8201026 3.2116903 3.0447754 C 3.2125411 3.0452997 3.2129128 3.0458043 3.2137573 3.0463257 C 2.8565615 2.8216535 2.1463692 2.8338413 2.1228678 2.8344523 L 2.120284 2.8344523 C 1.9262132 2.5964562 1.9401831 1.8118817 1.9513021 1.6479614 z M 5.8962809 1.688269 C 5.9121928 2.2105697 6.1113693 2.7967533 6.6817627 3.348116 L 6.6812459 3.3501831 C 6.1105048 2.7979001 5.9118027 2.2109151 5.8962809 1.688269 z M 1.3249837 4.1992269 A 1.8472613 1.7871119 0 0 1 1.3255005 4.1992269 A 1.2575781 1.2166296 0 0 0 2.4840861 4.9025431 C 2.4839868 4.9033908 2.4841842 4.9042789 2.4840861 4.905127 A 1.2575781 1.2166296 0 0 1 1.3249837 4.1992269 z M 0.087849935 4.7640503 C 0.076518955 4.9087402 0.076067429 5.0509387 0.095084635 5.1697103 C 0.084254986 5.1057911 0.077052689 5.0459791 0.074930827 4.9919434 C 0.073587355 4.9577303 0.073649787 4.9253799 0.074930827 4.8937581 C 0.076745429 4.8489657 0.082397791 4.8062201 0.087849935 4.7640503 z M 7.8687703 5.7805257 C 7.8592448 5.8645368 7.8463516 5.9433782 7.8315633 6.0156535 C 7.8463779 5.9432446 7.8592546 5.8646915 7.8687703 5.7805257 z " />
    <path
       d="M 6.1807642,12.7 Q 5.6339201,12.7 5.1353275,12.506996 4.6367349,12.313993 4.2400045,11.938708 3.7253281,11.456198 3.4947961,10.79677 3.264264,10.137339 3.264264,9.4296589 q 0,-0.8363491 0.4074519,-1.3563871 0.4074527,-0.5200371 1.1901896,-0.5200371 0.1501145,0 0.2841444,0.026804 0.1340307,0.026804 0.273422,0.080419 L 7.9821324,8.6147535 10.544792,7.6604576 q 0.139391,-0.053616 0.273422,-0.080419 0.134031,-0.026804 0.284145,-0.026804 0.782736,0 1.190189,0.5200371 Q 12.7,8.5933097 12.7,9.4296589 q 0,0.7076801 -0.230532,1.3671111 -0.230532,0.659428 -0.745209,1.141938 -0.396729,0.375285 -0.895323,0.568288 Q 10.330344,12.7 9.7834999,12.7 9.0758198,12.7 8.582588,12.378327 L 8.0893561,12.056654 H 7.874908 L 7.3816761,12.378327 Q 6.8884443,12.7 6.1807642,12.7 Z m 0.3967295,-1.715588 q 0.3109505,0 0.4932319,-0.144753 0.1822813,-0.144753 0.1822813,-0.391369 0,-0.418175 -0.5575663,-0.7988212 -0.5575664,-0.3806457 -1.1687442,-0.3806457 -0.3109505,0 -0.4932319,0.1447529 -0.1822813,0.1447521 -0.1822813,0.3913683 0,0.4181737 0.5575664,0.7988207 0.5575663,0.380647 1.1687441,0.380647 z m 2.8092766,0 q 0.6111786,0 1.1687437,-0.380647 0.557567,-0.380647 0.557567,-0.7988207 0,-0.2573386 -0.17692,-0.3967299 -0.17692,-0.1393913 -0.498593,-0.1393913 -0.6111782,0 -1.1687445,0.3806457 Q 8.711257,10.030115 8.711257,10.44829 q 0,0.246616 0.1769199,0.391369 0.1769206,0.144753 0.4985934,0.144753 z"
       id="path1"
       style="fill:#666666;fill-opacity:1;stroke-width:0.0107225" />
  </g>
</svg>
