<?xml version="1.0" encoding="UTF-8" standalone="no"?>
<svg
   height="24"
   viewBox="0 -960 1120 960"
   width="28"
   fill="#ffffff"
   version="1.1"
   id="svg1"
   sodipodi:docname="home-active.svg"
   inkscape:version="1.4.2 (ebf0e940d0, 2025-05-08)"
   xmlns:inkscape="http://www.inkscape.org/namespaces/inkscape"
   xmlns:sodipodi="http://sodipodi.sourceforge.net/DTD/sodipodi-0.dtd"
   xmlns="http://www.w3.org/2000/svg"
   xmlns:svg="http://www.w3.org/2000/svg">
  <defs
     id="defs1" />
  <sodipodi:namedview
     id="namedview1"
     pagecolor="#505050"
     bordercolor="#eeeeee"
     borderopacity="1"
     inkscape:showpageshadow="0"
     inkscape:pageopacity="0"
     inkscape:pagecheckerboard="0"
     inkscape:deskcolor="#505050"
     inkscape:zoom="19.3589"
     inkscape:cx="0.59404202"
     inkscape:cy="14.592771"
     inkscape:window-width="1920"
     inkscape:window-height="1080"
     inkscape:window-x="0"
     inkscape:window-y="0"
     inkscape:window-maximized="1"
     inkscape:current-layer="svg1" />
  <path
     id="path1"
     style="fill:#fff59d;fill-opacity:1;stroke-width:1.33714"
     d="m 559.99999,-854.4 c -94.49143,0 -176.7675,30.55232 -246.74464,91.61517 -69.97714,61.06286 -111.20572,137.48197 -123.68571,229.29912 H 78.62856 c -15.15428,0 -27.87803,5.10482 -38.12946,15.35625 -10.251429,10.25142 -15.35625,22.97518 -15.35625,38.12946 0,15.15428 5.104821,27.87804 15.35625,38.12946 10.25143,10.25144 22.97518,15.35625 38.12946,15.35625 h 110.94108 c 12.47999,91.81715 53.70857,168.23624 123.68571,229.29912 69.97714,61.06285 152.25321,91.61517 246.74464,91.61517 94.49144,0 176.76751,-30.55232 246.74465,-91.61517 69.97713,-61.06288 111.20571,-137.48197 123.68571,-229.29912 h 110.94105 c 15.1543,0 27.878,-5.10481 38.1295,-15.35625 10.2515,-10.25144 15.3562,-22.97518 15.3562,-38.12946 0,-15.15428 -5.1048,-27.87804 -15.3562,-38.12946 -10.2515,-10.25143 -22.9752,-15.35625 -38.1295,-15.35625 H 930.43035 c -12.48,-91.81715 -53.70858,-168.23626 -123.68571,-229.29912 C 736.7675,-823.84768 654.49143,-854.4 559.99999,-854.4 Z m 0,118.98483 c 12.03428,0 22.71055,3.62839 32.07055,10.75981 l 160.45714,120.34286 c 6.68573,4.90286 11.98552,11.12197 15.7741,18.6991 3.78855,7.57715 5.64107,15.55822 5.64107,24.0268 v 240.68571 c 0,14.70858 -5.19537,27.34178 -15.66964,37.81606 -10.47428,10.4743 -23.10749,15.66966 -37.81607,15.66966 h -80.22858 c -7.57713,0 -13.88676,-2.50019 -19.0125,-7.6259 -5.12568,-5.12571 -7.73035,-11.53983 -7.73035,-19.11696 v -133.71428 c 0,-7.57715 -2.60464,-13.88679 -7.73036,-19.01252 -5.12574,-5.12571 -11.43537,-7.73036 -19.0125,-7.73034 h -53.48571 c -7.57714,0 -13.88677,2.60463 -19.0125,7.73034 -5.12573,5.12573 -7.73036,11.43537 -7.73036,19.01252 v 133.71428 c 0,7.57713 -2.60468,13.99125 -7.73036,19.11696 -5.12574,5.12571 -11.43536,7.6259 -19.0125,7.6259 h -80.22857 c -14.70857,0 -27.34179,-5.19536 -37.81607,-15.66966 -10.47428,-10.47428 -15.66964,-23.1075 -15.66964,-37.81606 V -561.5866 c 0,-8.46858 1.8525,-16.44965 5.64107,-24.0268 3.78856,-7.57713 9.08838,-13.79624 15.7741,-18.6991 l 160.45714,-120.34286 c 9.36001,-7.13142 20.03623,-10.75981 32.07054,-10.75981 z" />
</svg>
