<?xml version="1.0" encoding="UTF-8" standalone="no"?>
<svg
   height="24"
   viewBox="0 -960 1120 960"
   width="28"
   fill="#ffffff"
   version="1.1"
   id="svg1"
   sodipodi:docname="proton-inactive.svg"
   inkscape:version="1.4.2 (ebf0e940d0, 2025-05-08)"
   xmlns:inkscape="http://www.inkscape.org/namespaces/inkscape"
   xmlns:sodipodi="http://sodipodi.sourceforge.net/DTD/sodipodi-0.dtd"
   xmlns="http://www.w3.org/2000/svg"
   xmlns:svg="http://www.w3.org/2000/svg">
  <defs
     id="defs1" />
  <sodipodi:namedview
     id="namedview1"
     pagecolor="#505050"
     bordercolor="#eeeeee"
     borderopacity="1"
     inkscape:showpageshadow="0"
     inkscape:pageopacity="0"
     inkscape:pagecheckerboard="0"
     inkscape:deskcolor="#505050"
     inkscape:zoom="19.791899"
     inkscape:cx="10.029356"
     inkscape:cy="11.696705"
     inkscape:window-width="1920"
     inkscape:window-height="1080"
     inkscape:window-x="0"
     inkscape:window-y="0"
     inkscape:window-maximized="1"
     inkscape:current-layer="svg1" />
  <path
     id="path1"
     style="fill:#666666;fill-opacity:1;stroke-width:1.33714"
     d="m 559.99999,-854.4 c -94.49143,0 -176.7675,30.55234 -246.74464,91.61517 -69.97714,61.06286 -111.20572,137.48197 -123.68571,229.29912 H 78.62856 c -15.15428,0 -27.87803,5.10482 -38.12946,15.35625 -10.251429,10.25141 -15.35625,22.97518 -15.35625,38.12946 0,15.15428 5.104821,27.87804 15.35625,38.12946 10.25143,10.25144 22.97518,15.35625 38.12946,15.35625 h 110.94108 c 12.47999,91.81715 53.70857,168.23623 123.68571,229.29912 69.97714,61.06283 152.25321,91.61517 246.74464,91.61517 94.49144,0 176.76751,-30.55234 246.74465,-91.61517 69.97713,-61.06288 111.20571,-137.48197 123.68571,-229.29912 h 110.94105 c 15.1543,0 27.878,-5.10481 38.1295,-15.35625 10.2515,-10.25144 15.3562,-22.97518 15.3562,-38.12946 0,-15.15428 -5.1048,-27.87805 -15.3562,-38.12946 -10.2515,-10.25143 -22.9752,-15.35625 -38.1295,-15.35625 H 930.43035 c -12.48,-91.81715 -53.70858,-168.23624 -123.68571,-229.29912 C 736.7675,-823.84766 654.49143,-854.4 559.99999,-854.4 Z m -176.85803,239.22321 c 5.67271,0 11.02257,0.55397 16.08749,1.56696 5.06494,1.01298 10.19319,2.46599 15.46071,4.49197 l 145.30983,54.1125 145.30983,-54.1125 c 5.26753,-2.02598 10.39578,-3.47899 15.46072,-4.49197 5.06492,-1.01299 10.41476,-1.56696 16.08748,-1.56696 29.57923,0 52.08652,9.80697 67.48394,29.45893 15.39739,19.65194 23.0866,45.28051 23.0866,76.88572 0,26.74285 -4.34635,52.59303 -13.05802,77.5125 -8.71172,24.91949 -22.75424,46.53411 -42.20358,64.76785 -14.99222,14.18184 -31.92807,24.88152 -50.76965,32.175 -18.84155,7.2935 -38.67076,10.96875 -59.33572,10.96876 -26.74284,-1e-5 -49.36728,-6.12542 -68.00624,-18.28126 l -27.99643,-18.17678 h -12.11786 l -27.99642,18.17678 c -18.63896,12.15584 -41.26339,18.28126 -68.00625,18.28126 -20.66495,0 -40.49417,-3.67526 -59.33571,-10.96876 -18.84157,-7.29349 -35.77744,-17.99316 -50.76966,-32.175 -19.44933,-18.23374 -33.49186,-39.84836 -42.20357,-64.76785 -8.71167,-24.91947 -13.05803,-50.76965 -13.05803,-77.5125 0,-31.60521 7.68921,-57.23378 23.0866,-76.88572 15.3974,-19.65196 37.9047,-29.45893 67.48394,-29.45893 z m 37.7116,97.25625 c -11.75063,0 -21.10811,2.78257 -27.99642,8.25268 -6.88832,5.47013 -10.34198,12.82693 -10.34198,22.14643 0,15.80258 10.58255,30.84861 31.65269,45.23303 21.07012,14.38442 43.13425,21.62411 66.23036,21.62411 11.75066,0 21.00366,-2.78254 27.89195,-8.25268 6.88834,-5.47013 10.34198,-12.82694 10.34198,-22.14643 0,-15.80259 -10.47808,-30.84861 -31.54822,-45.23303 -21.07012,-14.38441 -43.13425,-21.6241 -66.23036,-21.62411 z m 278.29286,0 c -23.09611,0 -45.16023,7.2397 -66.23036,21.62411 -21.07013,14.38442 -31.54821,29.43044 -31.54821,45.23303 0,9.31949 3.34286,16.6763 10.02857,22.14643 6.68572,5.47014 16.04951,8.25268 28.20536,8.25268 23.09609,0 45.16022,-7.23967 66.23036,-21.62411 21.07013,-14.38442 31.65268,-29.43045 31.65268,-45.23303 0,-9.72468 -3.34286,-17.19229 -10.02857,-22.45983 -6.68571,-5.26754 -16.15398,-7.93928 -28.30983,-7.93928 z" />
</svg>
