<?xml version="1.0" encoding="UTF-8" standalone="no"?>
<svg
   height="24"
   viewBox="0 -960 1120 960"
   width="28"
   fill="#ffffff"
   version="1.1"
   id="svg1"
   sodipodi:docname="proton-active.svg"
   inkscape:version="1.4.2 (ebf0e940d0, 2025-05-08)"
   xmlns:inkscape="http://www.inkscape.org/namespaces/inkscape"
   xmlns:sodipodi="http://sodipodi.sourceforge.net/DTD/sodipodi-0.dtd"
   xmlns="http://www.w3.org/2000/svg"
   xmlns:svg="http://www.w3.org/2000/svg">
  <defs
     id="defs1" />
  <sodipodi:namedview
     id="namedview1"
     pagecolor="#505050"
     bordercolor="#eeeeee"
     borderopacity="1"
     inkscape:showpageshadow="0"
     inkscape:pageopacity="0"
     inkscape:pagecheckerboard="0"
     inkscape:deskcolor="#505050"
     inkscape:zoom="19.791899"
     inkscape:cx="10.054619"
     inkscape:cy="11.721968"
     inkscape:window-width="1890"
     inkscape:window-height="1015"
     inkscape:window-x="12"
     inkscape:window-y="12"
     inkscape:window-maximized="1"
     inkscape:current-layer="svg1" />
  <path
     id="path1"
     style="fill:#fff59d;fill-opacity:1;stroke-width:1.33714"
     d="m 559.99999,-854.4 c -94.49143,0 -176.7675,30.55233 -246.74464,91.61517 -69.97714,61.06287 -111.20571,137.48197 -123.68571,229.29912 H 78.628564 c -15.154285,0 -27.878035,5.10482 -38.129464,15.35626 -10.251429,10.2514 -15.35625,22.97516 -15.35625,38.12945 0,15.15429 5.104821,27.87804 15.35625,38.12945 10.251429,10.25145 22.975179,15.35626 38.129464,15.35626 H 189.56964 c 12.48,91.81715 53.70857,168.23623 123.68571,229.29912 69.97714,61.06284 152.25321,91.61517 246.74464,91.61517 94.49143,0 176.7675,-30.55233 246.74465,-91.61517 69.97714,-61.06288 111.20571,-137.48197 123.68571,-229.29912 h 110.94115 c 15.1543,0 27.8781,-5.10481 38.1294,-15.35626 10.2514,-10.25143 15.3562,-22.97516 15.3562,-38.12945 0,-15.15429 -5.1049,-27.87805 -15.3562,-38.12945 -10.2513,-10.25144 -22.9752,-15.35626 -38.1295,-15.35626 H 930.43035 c -12.48,-91.81715 -53.70857,-168.23624 -123.68571,-229.29912 C 736.76749,-823.84767 654.49142,-854.4 559.99999,-854.4 Z m -176.85802,239.22321 c 5.6727,0 11.02256,0.55397 16.08748,1.56696 5.06494,1.01298 10.19319,2.46599 15.46071,4.49197 l 145.30983,54.1125 145.30984,-54.1125 c 5.26751,-2.02598 10.39577,-3.47899 15.46071,-4.49197 5.06492,-1.01299 10.41476,-1.56696 16.08748,-1.56696 29.57924,0 52.08651,9.80697 67.48395,29.45893 15.39738,19.65194 23.08659,45.28052 23.08659,76.88572 0,26.74285 -4.34636,52.59303 -13.05802,77.5125 -8.71172,24.91948 -22.75425,46.53411 -42.20357,64.76785 -14.99223,14.18183 -31.92808,24.88151 -50.76967,32.175 -18.84154,7.29351 -38.67075,10.96874 -59.33571,10.96877 -26.74284,-3e-5 -49.36728,-6.12543 -68.00624,-18.28127 l -27.99643,-18.17678 h -12.11786 l -27.99642,18.17678 c -18.63896,12.15584 -41.26339,18.28127 -68.00624,18.28127 -20.66497,0 -40.49417,-3.67526 -59.33572,-10.96877 -18.84158,-7.2935 -35.77744,-17.99317 -50.76966,-32.175 -19.44932,-18.23374 -33.49185,-39.84837 -42.20357,-64.76785 -8.71167,-24.91947 -13.05803,-50.76965 -13.05803,-77.5125 0,-31.6052 7.68922,-57.23378 23.0866,-76.88572 15.3974,-19.65196 37.9047,-29.45893 67.48395,-29.45893 z m 37.71159,97.25624 c -11.75063,0 -21.10811,2.78258 -27.99642,8.25269 -6.88832,5.47013 -10.34198,12.82694 -10.34198,22.14643 0,15.80258 10.58255,30.84861 31.65269,45.23303 21.07012,14.38442 43.13425,21.62411 66.23036,21.62411 11.75066,0 21.00366,-2.78253 27.89195,-8.25269 6.88834,-5.47012 10.34198,-12.82694 10.34198,-22.14642 0,-15.80259 -10.47808,-30.8486 -31.54822,-45.23303 -21.07012,-14.3844 -43.13424,-21.62409 -66.23036,-21.62412 z m 278.29286,0 c -23.09611,0 -45.16024,7.23972 -66.23036,21.62412 -21.07014,14.38443 -31.54821,29.43044 -31.54821,45.23303 0,9.31948 3.34286,16.6763 10.02857,22.14642 6.68572,5.47016 16.04952,8.25269 28.20536,8.25269 23.09609,0 45.16022,-7.23968 66.23036,-21.62411 21.07014,-14.38442 31.65269,-29.43045 31.65269,-45.23303 0,-9.72468 -3.34286,-17.19229 -10.02858,-22.45983 -6.68571,-5.26754 -16.15399,-7.93929 -28.30983,-7.93929 z" />
</svg>
