<?xml version="1.0" encoding="UTF-8" standalone="no"?>
<svg
   height="24"
   viewBox="0 -960 1240 960"
   width="31"
   version="1.1"
   id="svg1"
   sodipodi:docname="duplica.svg"
   inkscape:version="1.3 (0e150ed6c4, 2023-07-21)"
   xmlns:inkscape="http://www.inkscape.org/namespaces/inkscape"
   xmlns:sodipodi="http://sodipodi.sourceforge.net/DTD/sodipodi-0.dtd"
   xmlns="http://www.w3.org/2000/svg"
   xmlns:svg="http://www.w3.org/2000/svg">
  <defs
     id="defs1" />
  <sodipodi:namedview
     id="namedview1"
     pagecolor="#ffffff"
     bordercolor="#000000"
     borderopacity="0.25"
     inkscape:showpageshadow="2"
     inkscape:pageopacity="0.0"
     inkscape:pagecheckerboard="0"
     inkscape:deskcolor="#d1d1d1"
     inkscape:zoom="12.68395"
     inkscape:cx="10.840472"
     inkscape:cy="10.091494"
     inkscape:window-width="1896"
     inkscape:window-height="1017"
     inkscape:window-x="12"
     inkscape:window-y="51"
     inkscape:window-maximized="1"
     inkscape:current-layer="svg1" />
  <path
     id="path9"
     style="fill:#fff59d"
     d="m 520.00001,-940 c -5.49998,0 -10.83335,0.5052 -15.9375,1.4844 -2.55208,0.4896 -5.04688,1.0626 -7.5,1.7968 -2.45312,0.7344 -4.83334,1.599 -7.1875,2.5782 -2.35416,0.9791 -4.61979,2.0573 -6.875,3.2812 -2.25521,1.224 -4.48438,2.5938 -6.64062,4.0625 -4.31249,2.9375 -8.42709,6.3959 -12.34376,10.3125 -3.91665,3.9167 -7.375,8.0313 -10.3125,12.3438 -1.46873,2.1562 -2.76041,4.30727 -3.98437,6.56248 -1.22396,2.25519 -2.38021,4.59896 -3.35937,6.95312 -0.97916,2.35416 -1.84376,4.73438 -2.57813,7.1875 -0.73437,2.45312 -1.30729,4.94792 -1.79687,7.5 -0.97916,5.10415 -1.48438,10.43752 -1.48438,15.9375 v 120 h -320 c -5.49998,0 -10.83335,0.50521 -15.9375,1.48438 -2.55208,0.48957 -5.046879,1.0625 -7.499999,1.79687 -2.45312,0.73437 -4.83334,1.59896 -7.1875,2.57813 -2.35416,0.97915 -4.61979,2.05729 -6.875,3.28124 -2.25521,1.22395 -4.48439,2.59376 -6.64062,4.0625 -4.3125,2.93749 -8.4271,6.39584 -12.34376,10.3125 -3.916659,3.91666 -7.375001,8.03126 -10.312497,12.34376 -1.46875,2.15623 -2.76042,4.30729 -3.98437,6.5625 -1.22396,2.25519 -2.38021,4.59896 -3.35938,6.95312 -0.97916,2.35416 -1.84375,4.73438 -2.57812,7.1875 -0.73438,2.45312 -1.3073,4.94792 -1.79688,7.5 -0.97916,5.10415 -1.48437,10.43752 -1.48437,15.9375 v 440 c 0,5.49998 0.50521,10.83335 1.48437,15.9375 0.48958,2.55208 1.0625,5.04688 1.79688,7.5 0.73437,2.45312 1.59896,4.83334 2.57812,7.1875 0.97917,2.35416 2.13542,4.61979 3.35938,6.875 1.22395,2.25521 2.51562,4.48438 3.98437,6.64062 2.937496,4.31249 6.395838,8.42709 10.312497,12.34376 3.91666,3.91665 8.03126,7.375 12.34376,10.3125 2.15623,1.46873 4.38541,2.76041 6.64062,3.98437 2.25521,1.22396 4.52084,2.38021 6.875,3.35937 2.35416,0.97916 4.73438,1.84376 7.1875,2.57813 2.45312,0.73437 4.947919,1.30729 7.499999,1.79687 5.10415,0.97916 10.43752,1.48438 15.9375,1.48438 h 640 c 5.49998,0 10.83335,-0.50522 15.9375,-1.48438 2.55208,-0.48958 5.04688,-1.0625 7.5,-1.79687 2.45312,-0.73437 4.83334,-1.59897 7.1875,-2.57813 2.35416,-0.97916 4.61979,-2.13541 6.875,-3.35937 2.25521,-1.22396 4.48439,-2.51564 6.64062,-3.98437 4.3125,-2.9375 8.4271,-6.39585 12.34376,-10.3125 3.91666,-3.91667 7.37501,-8.03127 10.3125,-12.34376 1.46874,-2.15624 2.76041,-4.38541 3.98437,-6.64062 1.22396,-2.25521 2.38022,-4.52084 3.35937,-6.875 0.97917,-2.35416 1.84376,-4.73438 2.57813,-7.1875 0.73437,-2.45312 1.3073,-4.94792 1.79687,-7.5 0.97917,-5.10415 1.48438,-10.43752 1.48438,-15.9375 H 1000 v -80 h 160 c 5.5,0 10.8333,-0.50522 15.9375,-1.48438 2.5521,-0.48958 5.0469,-1.0625 7.5,-1.79687 2.4531,-0.73437 4.8333,-1.59897 7.1875,-2.57813 2.3542,-0.97916 4.6198,-2.13541 6.875,-3.35937 2.2552,-1.22396 4.4844,-2.51564 6.6406,-3.98437 4.3125,-2.9375 8.4271,-6.39585 12.3438,-10.3125 3.9166,-3.91667 7.375,-8.03127 10.3125,-12.34376 1.4687,-2.15624 2.7604,-4.38541 3.9843,-6.64062 1.2239,-2.25521 2.3803,-4.52084 3.3594,-6.875 0.9792,-2.35416 1.8438,-4.73438 2.5782,-7.1875 0.7342,-2.45312 1.3072,-4.94792 1.7968,-7.5 0.9792,-5.10415 1.4844,-10.43752 1.4844,-15.9375 v -480 c 0,-5.49998 -0.5052,-10.83335 -1.4844,-15.9375 -0.4896,-2.55208 -1.0626,-5.04688 -1.7968,-7.5 -0.7344,-2.45312 -1.599,-4.83334 -2.5782,-7.1875 -0.9791,-2.35416 -2.1355,-4.69793 -3.3594,-6.95312 -1.2239,-2.25521 -2.5156,-4.40628 -3.9843,-6.56248 -2.9375,-4.3125 -6.3959,-8.4271 -10.3125,-12.3438 -3.9167,-3.9166 -8.0313,-7.375 -12.3438,-10.3125 -2.1562,-1.4687 -4.3854,-2.8385 -6.6406,-4.0625 -2.2552,-1.2239 -4.5208,-2.3021 -6.875,-3.2812 -2.3542,-0.9792 -4.7344,-1.8438 -7.1875,-2.5782 -2.4531,-0.7342 -4.9479,-1.3072 -7.5,-1.7968 C 1170.8333,-939.4948 1165.5,-940 1160,-940 Z m 0,80 H 1160 v 480 H 840.00001 v -280 c 0,-5.49998 -0.50521,-10.83335 -1.48438,-15.9375 -0.48957,-2.55208 -1.0625,-5.04688 -1.79687,-7.5 -0.73437,-2.45312 -1.59896,-4.83334 -2.57813,-7.1875 -0.97915,-2.35416 -2.13541,-4.69793 -3.35937,-6.95312 -1.22396,-2.25521 -2.51563,-4.40627 -3.98437,-6.5625 -2.93749,-4.3125 -6.39584,-8.4271 -10.3125,-12.34376 -3.91666,-3.91666 -8.03126,-7.37501 -12.34376,-10.3125 -2.15623,-1.46874 -4.38541,-2.83855 -6.64062,-4.0625 -2.25521,-1.22395 -4.52084,-2.30209 -6.875,-3.28124 -2.35416,-0.97917 -4.73438,-1.84376 -7.1875,-2.57813 -2.45312,-0.73437 -4.94792,-1.3073 -7.5,-1.79687 C 770.83336,-739.49479 765.49999,-740 760.00001,-740 h -240 z m -400,200 h 320 80 240 v 280 160 h -80 -560 z M 40.000014,-99.999997 c -2.833332,0 -5.520842,0.22396 -8.125002,0.70312 -2.60416,0.47916 -5.125011,1.22917 -7.500001,2.1875 -2.375,0.95833 -4.65105,2.15626 -6.796879,3.59376 -2.145831,1.43748 -4.177091,3.08333 -6.093751,5 -1.9166595,1.91665 -3.562499,3.94791 -4.999999,6.09374 -1.4375,2.14583 -2.63542,4.42188 -3.59375,6.79688 -0.95833,2.375 -1.70833,4.89584 -2.1875,7.5 -0.47916,2.60416 -0.70312,5.29167 -0.70312,8.125 0,2.83333 0.22396,5.52084 0.70312,8.125 0.47917,2.60416 1.22917,5.125 2.1875,7.5 0.95833,2.375 2.15625,4.65104 3.59375,6.79688 1.4375,2.14582 3.0833395,4.17708 4.999999,6.09374 1.91666,1.91666 3.94792,3.56252 6.093751,5 2.145829,1.4375 4.421879,2.63543 6.796879,3.59376 2.37499,0.95833 4.895841,1.70834 7.500001,2.1875 2.60416,0.47916 5.29167,0.70312 8.125002,0.70312 H 840.00001 c 2.83333,0 5.52084,-0.22396 8.125,-0.70312 2.60416,-0.47916 5.125,-1.22917 7.5,-2.1875 2.375,-0.95833 4.65105,-2.15626 6.79688,-3.59376 2.14583,-1.43748 4.17709,-3.08334 6.09374,-5 1.91667,-1.91666 3.56252,-3.94792 5,-6.09374 1.4375,-2.14584 2.63543,-4.42188 3.59376,-6.79688 0.95833,-2.375 1.70834,-4.89584 2.1875,-7.5 0.47916,-2.60416 0.70312,-5.29167 0.70312,-8.125 0,-2.83333 -0.22396,-5.52084 -0.70312,-8.125 -0.47916,-2.60416 -1.22917,-5.125 -2.1875,-7.5 -0.95833,-2.375 -2.15626,-4.65105 -3.59376,-6.79688 -1.43748,-2.14583 -3.08333,-4.17709 -5,-6.09374 -1.91665,-1.91667 -3.94791,-3.56252 -6.09374,-5 -2.14583,-1.4375 -4.42188,-2.63543 -6.79688,-3.59376 -2.375,-0.95833 -4.89584,-1.70834 -7.5,-2.1875 -2.60416,-0.47916 -5.29167,-0.70312 -8.125,-0.70312 z" />
</svg>
