<?xml version="1.0" encoding="UTF-8" standalone="no"?>
<svg
   height="48"
   viewBox="0 -960 960 960"
   width="48"
   version="1.1"
   id="svg2903"
   sodipodi:docname="bluetooth-unknown.svg"
   inkscape:version="1.3.2 (091e20ef0f, 2023-11-25)"
   xmlns:inkscape="http://www.inkscape.org/namespaces/inkscape"
   xmlns:sodipodi="http://sodipodi.sourceforge.net/DTD/sodipodi-0.dtd"
   xmlns="http://www.w3.org/2000/svg"
   xmlns:svg="http://www.w3.org/2000/svg">
  <defs
     id="defs2907" />
  <sodipodi:namedview
     id="namedview2905"
     pagecolor="#ffffff"
     bordercolor="#000000"
     borderopacity="0.25"
     inkscape:showpageshadow="2"
     inkscape:pageopacity="0.0"
     inkscape:pagecheckerboard="0"
     inkscape:deskcolor="#d1d1d1"
     showgrid="false"
     inkscape:zoom="10.786324"
     inkscape:cx="22.667593"
     inkscape:cy="23.131143"
     inkscape:window-width="1890"
     inkscape:window-height="1015"
     inkscape:window-x="12"
     inkscape:window-y="12"
     inkscape:window-maximized="1"
     inkscape:current-layer="svg2903" />
  <path
     d="M 465.98168,-136.55338 V -383.875 l -156.20309,156.20313 q -11.01431,11.01432 -28.0364,11.01432 -17.02215,0 -28.03645,-11.01432 -11.01432,-11.01433 -11.01432,-28.03646 0,-17.02214 11.01432,-28.03646 L 449.96088,-480 253.70574,-676.25521 q -11.01432,-11.01433 -11.01432,-28.03646 0,-17.02213 11.01432,-28.03646 11.0143,-11.01432 28.03645,-11.01432 17.02209,0 28.0364,11.01432 L 465.98168,-576.125 v -247.32162 q 0,-18.02344 12.0157,-29.53841 12.0156,-11.51497 28.0364,-11.51497 8.0105,0 15.0196,3.0039 7.0091,3.0039 13.0169,9.01172 l 172.224,172.22396 q 6.0078,6.00781 8.511,13.01693 2.5033,7.00911 2.5033,15.01953 0,8.01041 -2.5033,15.01953 -2.5032,7.00911 -8.511,13.01693 L 562.10668,-480 l 144.1876,144.1875 q 6.0078,6.00781 8.511,13.01692 2.5033,7.00912 2.5033,15.01954 0,8.01042 -2.5033,15.01953 -2.5032,7.00912 -8.511,13.01693 l -172.224,172.22395 q -6.00779,6.00782 -13.01689,9.01172 -7.0091,3.00391 -15.0196,3.00391 -16.0208,0 -28.0364,-11.51498 -12.0157,-11.51497 -12.01571,-29.5384 z m 80.1042,-439.57162 76.099,-76.09896 -76.099,-74.09636 z m 0,342.44532 76.099,-74.09636 -76.099,-76.09896 z"
     id="path1"
     style="fill:#0099ff;fill-opacity:1;stroke-width:1.0013" />
</svg>
