<?xml version="1.0" encoding="UTF-8" standalone="no"?>
<svg
   height="48"
   viewBox="0 -960 960 960"
   width="48"
   version="1.1"
   id="svg3329"
   sodipodi:docname="wifi-disconnected.svg"
   inkscape:version="1.2.2 (b0a8486541, 2022-12-01)"
   xmlns:inkscape="http://www.inkscape.org/namespaces/inkscape"
   xmlns:sodipodi="http://sodipodi.sourceforge.net/DTD/sodipodi-0.dtd"
   xmlns="http://www.w3.org/2000/svg"
   xmlns:svg="http://www.w3.org/2000/svg">
  <defs
     id="defs3333" />
  <sodipodi:namedview
     id="namedview3331"
     pagecolor="#ffffff"
     bordercolor="#000000"
     borderopacity="0.25"
     inkscape:showpageshadow="2"
     inkscape:pageopacity="0.0"
     inkscape:pagecheckerboard="0"
     inkscape:deskcolor="#d1d1d1"
     showgrid="false"
     inkscape:zoom="3.9473986"
     inkscape:cx="-40.153026"
     inkscape:cy="-5.8266221"
     inkscape:window-width="1900"
     inkscape:window-height="1022"
     inkscape:window-x="10"
     inkscape:window-y="48"
     inkscape:window-maximized="1"
     inkscape:current-layer="svg3329" />
  <path
     d="m 740,-203.76316 -63,62 q -9,8 -21,8.5 -12,0.5 -21,-8.5 -9,-9 -9,-21 0,-12 9,-21 l 63,-63 -63,-63 q -9,-9 -9,-21 0,-12 9,-21 9,-9 21,-9 12,0 21,9 l 63,63 63,-63 q 9,-9 21,-9 12,0 21,9 9,9 8.5,21 -0.5,12 -8.5,21 l -62,63 62,63 q 8,9 8.5,21 0.5,12 -8.5,21 -9,9 -21,8.5 -12,-0.5 -21,-8.5 z m -281,36 -436,-436 q -9,-9 -9,-22.5 0,-13.5 10,-21.5 98,-85 211.5,-132 113.5,-47 244.5,-47 129,0 244.5,47 115.5,47 211.5,132 10,8 10,21.5 0,13.5 -9,22.5 l -151,151 q -11,-2 -22.5,-3.5 -11.5,-1.5 -23.5,-1.5 -88,0 -149.5,61.5 -61.5,61.5 -61.5,149.5 0,12 1.5,23.5 1.5,11.5 3.5,22.5 l -33,33 q -9,9 -21,9 -12,0 -21,-9 z"
     id="path3327"
     style="fill:#666666;fill-opacity:1" />
</svg>
