<?xml version="1.0" encoding="UTF-8" standalone="no"?>
<svg
   height="48"
   viewBox="0 -960 960 960"
   width="48"
   version="1.1"
   id="svg1121"
   sodipodi:docname="wifi-3.svg"
   inkscape:version="1.2.2 (b0a8486541, 2022-12-01)"
   xmlns:inkscape="http://www.inkscape.org/namespaces/inkscape"
   xmlns:sodipodi="http://sodipodi.sourceforge.net/DTD/sodipodi-0.dtd"
   xmlns="http://www.w3.org/2000/svg"
   xmlns:svg="http://www.w3.org/2000/svg">
  <defs
     id="defs1125" />
  <sodipodi:namedview
     id="namedview1123"
     pagecolor="#ffffff"
     bordercolor="#000000"
     borderopacity="0.25"
     inkscape:showpageshadow="2"
     inkscape:pageopacity="0.0"
     inkscape:pagecheckerboard="0"
     inkscape:deskcolor="#d1d1d1"
     showgrid="false"
     inkscape:zoom="18.291667"
     inkscape:cx="24.027335"
     inkscape:cy="24"
     inkscape:window-width="1900"
     inkscape:window-height="1022"
     inkscape:window-x="10"
     inkscape:window-y="48"
     inkscape:window-maximized="1"
     inkscape:current-layer="svg1121" />
  <path
     d="m 197,-500 q 62,-49 132,-76 70,-27 151,-27 81,0 151.5,27 70.5,27 132.5,76 L 872,-608 Q 785,-676 687.5,-715 590,-754 480,-754 370,-754 272.5,-715 175,-676 88,-608 Z m 283,354 q -6,0 -11,-2 -5,-2 -10,-7 L 21,-593 q -9,-9 -8.5,-21 0.5,-12 9.5,-20 95,-84 211.5,-132 116.5,-48 246.5,-48 130,0 246.5,48 116.5,48 211.5,132 9,8 9.5,20 0.5,12 -8.5,21 l -438,438 q -5,5 -10,7 -5,2 -11,2 z"
     id="path1119"
     style="fill:#fff59d;fill-opacity:1" />
</svg>
