<?xml version="1.0" encoding="UTF-8" standalone="no"?>
<!-- Created with Inkscape (http://www.inkscape.org/) -->

<svg
   width="48"
   height="48"
   viewBox="0 0 48 48"
   version="1.1"
   id="svg1"
   xml:space="preserve"
   inkscape:version="1.4.2 (ebf0e940d0, 2025-05-08)"
   sodipodi:docname="aseprite-current.svg"
   xmlns:inkscape="http://www.inkscape.org/namespaces/inkscape"
   xmlns:sodipodi="http://sodipodi.sourceforge.net/DTD/sodipodi-0.dtd"
   xmlns="http://www.w3.org/2000/svg"
   xmlns:svg="http://www.w3.org/2000/svg"><sodipodi:namedview
     id="namedview1"
     pagecolor="#505050"
     bordercolor="#eeeeee"
     borderopacity="1"
     inkscape:showpageshadow="0"
     inkscape:pageopacity="0"
     inkscape:pagecheckerboard="0"
     inkscape:deskcolor="#505050"
     inkscape:document-units="px"
     inkscape:zoom="4.4519617"
     inkscape:cx="23.360488"
     inkscape:cy="25.606689"
     inkscape:window-width="1890"
     inkscape:window-height="1015"
     inkscape:window-x="12"
     inkscape:window-y="12"
     inkscape:window-maximized="1"
     inkscape:current-layer="layer1" /><defs
     id="defs1" /><g
     inkscape:label="Layer 1"
     inkscape:groupmode="layer"
     id="layer1"><path
       style="fill:#fff59d;stroke:none;stroke-width:0.0104743;fill-opacity:1"
       d="m 19.748213,0.01664495 c -0.2947,0.039 -0.6138,0.01 -0.9112,0.01 -0.6318,0 -1.2641,-0.01 -1.8959,0 -1.5422,0.018 -3.0882,-0.01 -4.6296,0.031 -1.3411,0.033 -2.6823003,0.078 -4.0012003,0.3585 -1.007,0.2145 -1.9749,0.5691 -2.8804,1.05890005 -0.7553,0.4086 -1.4468,0.9323 -2.0739,1.5165 -1.6034,1.4936 -2.61530001,3.534 -3.00170001,5.6761 -0.2327,1.2906 -0.2554,2.591 -0.2874,3.8964 -0.059,2.3926 -0.042,4.7898 -0.042,7.1854 0,2.7715 -0.033,5.5453 0,8.3166 0.021,1.7202 0.031,3.4433 0.031,5.1638 0,2.9071 -0.1505,5.9966 1.09250001,8.7041 0.2251,0.4902 0.4877,0.9665 0.7894,1.414 0.4438,0.6585 0.9625,1.2597 1.5432,1.8007 0.4739,0.4415 1.0001,0.8287 1.5502,1.1696 2.8821,1.7857 6.3524003,1.6698 9.6153003,1.6698 h 15.1354 c 1.7828,0 3.5707,0.033 5.3523,-0.01 1.2772,-0.031 2.5449,-0.036 3.8126,-0.223 1.0549,-0.1553 2.0888,-0.4454 3.0585,-0.8907 2.6805,-1.2308 4.6883,-3.6759 5.4555,-6.5117 0.3918,-1.448 0.4681,-2.9412 0.5045,-4.4306 0.037,-1.5064 0.021,-3.0168 0.021,-4.5249 v -14.3078 c 0,-1.4453 0.01,-2.892 -0.01,-4.3364 -0.018,-1.4847 -0.048,-2.9814 -0.3584,-4.4411 -0.2473,-1.1632 -0.6725,-2.284 -1.2946,-3.2994 -0.4247,-0.6932 -0.9374,-1.3822 -1.5417,-1.929 -0.2632,-0.2382 -0.5158,-0.484 -0.796,-0.7036 -0.731,-0.5727 -1.5397,-1.0465 -2.3986,-1.39990005 -1.859,-0.7646 -3.8535,-0.8734 -5.8342,-0.922 -1.7917,-0.044 -3.5909,-0.031 -5.3838,-0.031 -0.6906,0 -1.3835,0.017 -2.0739,-2e-4 -1.8478,-0.045 -3.7022,-0.01 -5.5513,-0.01 h -1.9901 c -0.3274,0 -0.6812,-0.038 -1.0056,0 m -8.3584,3.16180005 c 0.2617,-0.031 0.5428,0 0.8065,0 h 1.5711 4.7973 14.643 2.2938 c 0.6242,0 1.2446,-0.011 1.8645,0.066 2.095,0.2606 4.0232,1.3558 5.3809,2.9612 0.9217,1.0899 1.5571,2.4501 1.8104,3.8545 0.1617,0.896 0.1407,1.7955 0.1407,2.7024 v 3.3727 10.5895 2.9433 c 0,1.0391 0,2.0559 -0.2696,3.0689 -0.8524,3.2337 -3.6153,5.7206 -6.9263,6.2084 -0.9964,0.1468 -2.0218,0.087 -3.027,0.087 h -4.7972 -14.9259 -2.2834 c -0.6562,0 -1.308,0.01 -1.9587,-0.087 -2.0459003,-0.3014 -3.9106003,-1.3633 -5.2431003,-2.9404 -1.0513,-1.2443 -1.6987,-2.7978 -1.8973,-4.4097 -0.1122,-0.9101 -0.055,-1.8487 -0.055,-2.7652 v -3.7498 -10.0134 -2.4929 c 0,-0.5304 -0.014,-1.0634 0.022,-1.592 0.044,-0.6488 0.173,-1.2959 0.3659,-1.9168 0.7642,-2.459 2.7062,-4.4871 5.1217,-5.3728 0.587,-0.2152 1.2015003,-0.3707 1.8225003,-0.4479 0.2474,-0.031 0.4971,-0.034 0.7437,-0.063 m 3.4879,10.6224 c -0.3754,0.051 -0.7022,0.302 -0.7809,0.6868 -0.029,0.1438 -0.012,0.2941 -0.015,0.44 -0.01,0.244 -0.01,0.4884 -0.01,0.7332 v 2.21 7.4368 1.8015 c 0,0.3414 -0.027,0.6929 0.2039,0.9741 0.2653,0.3236 0.6284,0.3247 1.0111,0.3247 h 0.8379 c 0.2383,0 0.4866,0.02 0.7228,-0.013 0.3869,-0.055 0.6933,-0.376 0.7406,-0.7617 0.044,-0.3556 0,-0.7412 0,-1.0998 v -2.21 -7.4368 -1.812 c 0,-0.3368 0.035,-0.6746 -0.1934,-0.9532 -0.2666,-0.3251 -0.6269,-0.3247 -1.0111,-0.3247 h -0.8065 c -0.2286,0 -0.4754,-0.026 -0.7018,0 m 16.3399,0 c -0.3812,0.052 -0.7028,0.3091 -0.7809,0.6973 -0.028,0.1396 -0.015,0.2877 -0.015,0.4295 v 0.7122 2.2624 7.4473 1.8015 c 0,0.3347 -0.032,0.6696 0.2022,0.9427 0.2696,0.3151 0.6327,0.3142 1.0128,0.3142 h 0.8275 c 0.2421,0 0.4931,0.019 0.7332,-0.014 0.3764,-0.051 0.6943,-0.3847 0.7314,-0.7616 0.038,-0.3896 0.012,-0.792 0.012,-1.1835 v -2.1263 -7.4263 -1.8225 c 0,-0.323 0.022,-0.6763 -0.1934,-0.9427 -0.2693,-0.3328 -0.63,-0.3352 -1.0216,-0.3352 h -0.7856 c -0.2353,0 -0.4896,-0.027 -0.7227,0 z"
       id="path1" /></g></svg>
