<?xml version="1.0" encoding="UTF-8" standalone="no"?>
<!-- Created with Inkscape (http://www.inkscape.org/) -->

<svg
   width="48"
   height="48"
   viewBox="0 0 12.7 12.7"
   version="1.1"
   id="svg1"
   inkscape:version="1.3.2 (091e20ef0f, 2023-11-25, custom)"
   sodipodi:docname="firefox-private-current.svg"
   xmlns:inkscape="http://www.inkscape.org/namespaces/inkscape"
   xmlns:sodipodi="http://sodipodi.sourceforge.net/DTD/sodipodi-0.dtd"
   xmlns="http://www.w3.org/2000/svg"
   xmlns:svg="http://www.w3.org/2000/svg">
  <sodipodi:namedview
     id="namedview1"
     pagecolor="#ffffff"
     bordercolor="#000000"
     borderopacity="0.25"
     inkscape:showpageshadow="2"
     inkscape:pageopacity="0.0"
     inkscape:pagecheckerboard="0"
     inkscape:deskcolor="#d1d1d1"
     inkscape:document-units="mm"
     inkscape:zoom="7.5238028"
     inkscape:cx="25.452555"
     inkscape:cy="36.683577"
     inkscape:window-width="1896"
     inkscape:window-height="1017"
     inkscape:window-x="12"
     inkscape:window-y="51"
     inkscape:window-maximized="1"
     inkscape:current-layer="layer1" />
  <defs
     id="defs1" />
  <g
     inkscape:label="Livello 1"
     inkscape:groupmode="layer"
     id="layer1">
    <path
       d="m 6.4781576,0.06562907 c -6.323e-4,0 -0.00184,7.8883e-4 -0.00258,0.0010335 -2.992e-4,9.404e-5 -0.00108,2.5284e-4 -0.00155,5.1676e-4 l -5.167e-4,5.1677e-4 c -5.833e-4,3.3144e-4 -0.00103,8.1527e-4 -0.00155,0.0010335 C 5.2436966,0.7657833 4.8262197,2.0535298 4.7883382,2.6985433 c 0.057111,-0.00379 0.1137084,-0.00827 0.1720825,-0.00827 a 2.4714385,2.3909651 0 0 1 2.1456055,1.2123291 c 0.010088,0.00685 0.019462,0.013817 0.028939,0.020671 a 2.6660201,2.5792109 0 0 1 0.00103,0.00155 c 0.026913,0.019681 0.052028,0.039447 0.073381,0.058394 0.034835,0.031066 0.067654,0.062758 0.099219,0.094568 -0.031467,-0.031691 -0.064508,-0.06311 -0.099219,-0.094051 v -5.168e-4 c -0.021354,-0.018947 -0.046467,-0.038198 -0.073381,-0.057878 -0.00998,-0.00721 -0.019873,-0.014492 -0.030489,-0.021704 A 1.6905852,1.6355374 0 0 0 5.924703,3.6261353 C 7.2184787,4.2519595 7.3058018,6.000049 6.2941895,6.8409261 6.4596021,6.9039155 6.6235109,6.9702388 6.7876994,7.0372965 7.0823611,6.9014856 7.3855619,6.7198119 7.6915202,6.4786743 l 0.0031,-0.0062 v -5.167e-4 h 5.167e-4 C 8.5958591,5.7538774 9.1717199,4.6919212 9.0004842,3.5956462 a 4.4349434,4.2905356 0 0 1 5.168e-4,0.00155 C 9.172885,4.6932218 8.5966808,5.7543251 7.6956543,6.4735067 l -0.0031,0.0062 C 7.3866305,6.72078 7.0833869,6.9020503 6.7887329,7.0378133 7.1861815,7.2001399 7.5828307,7.361648 7.9845256,7.4631104 8.1785907,7.4128646 8.3724566,7.3467918 8.5664022,7.2755249 8.6749764,7.1161093 8.7696186,6.9540492 8.847522,6.7923503 a 4.4349434,4.2905356 0 0 0 0.011369,-0.024805 4.4349434,4.2905356 0 0 1 -0.010335,0.024805 C 8.7707257,6.9539086 8.6758337,7.1157493 8.5674357,7.2750081 8.8651093,7.1655856 9.1626758,7.04137 9.4624715,6.9230916 A 4.8973903,4.7379246 0 0 0 9.6056152,6.5908122 4.8973903,4.7379246 0 0 0 9.7823486,5.9092 c 0.00821,-0.061119 0.014892,-0.1217215 0.022221,-0.1834513 a 5.0363775,4.8723861 0 0 0 0.00723,-0.061495 5.0363775,4.8723861 0 0 0 0.017053,-0.1860351 5.0363775,4.8723861 0 0 0 0.00723,-0.1240235 5.0363775,4.8723861 0 0 0 0.00258,-0.062012 A 5.0363775,4.8723861 0 0 0 9.840743,5.1676432 5.0363775,4.8723861 0 0 0 9.8381592,4.9810913 5.0363775,4.8723861 0 0 0 9.8324748,4.8570679 5.0363775,4.8723861 0 0 0 9.8107707,4.6095378 5.0363775,4.8723861 0 0 0 9.7952677,4.4860311 5.0363775,4.8723861 0 0 0 9.7286051,4.1186117 5.0363775,4.8723861 0 0 0 9.6686605,3.876766 5.0363775,4.8723861 0 0 0 9.6516073,3.8168213 5.0363775,4.8723861 0 0 0 9.6335205,3.7573934 5.0363775,4.8723861 0 0 0 9.5957967,3.6385376 5.0363775,4.8723861 0 0 0 9.5751261,3.5796265 5.0363775,4.8723861 0 0 0 9.5327515,3.462321 5.0363775,4.8723861 0 0 0 9.4867594,3.346049 l -5.167e-4,5.168e-4 C 9.4596457,3.2846525 9.4296679,3.2223695 9.3968424,3.1600138 9.3640171,3.0976583 9.3282224,3.0351937 9.290389,2.9739787 9.2525556,2.9127635 9.2126372,2.8526364 9.1710164,2.7941447 9.1293958,2.735653 9.0860128,2.6788314 9.0418254,2.624646 8.9092629,2.4620896 8.7683079,2.3225627 8.6346151,2.2272542 8.5900507,2.1954848 8.5461225,2.1688043 8.5038737,2.1476725 a 5.0881817,4.9225036 0 0 1 0.2160075,0.4614706 5.0881817,4.9225036 0 0 1 0.1658813,0.4811076 5.0881817,4.9225036 0 0 1 0.1142049,0.4945434 v 0.00465 c 5.13e-5,6.242e-4 0,2.446e-4 0,0.00103 v 0.00155 c 1.376e-4,8.724e-4 3.802e-4,0.00171 5.168e-4,0.00258 a 4.4349434,4.2905356 0 0 0 -5.168e-4,0 v -0.00258 C 8.4460431,2.2559757 7.5063635,1.7169246 6.7406738,0.5446696 6.7018859,0.48538454 6.6632142,0.42599301 6.6254354,0.36328532 6.6038284,0.32746998 6.5867289,0.29480374 6.5716919,0.2651001 a 0.89115827,0.86214096 0 0 1 -0.07338,-0.18758545 0.01263516,0.01222375 0 0 0 -0.010852,-0.01188558 0.01743653,0.01686877 0 0 0 -0.0093,0 z M 1.9513021,1.6479614 A 0.87536428,0.84686123 0 0 0 1.7874878,1.7316772 3.565644,3.4495417 0 0 0 1.308964,2.1285522 4.2757403,4.1365163 0 0 0 0.84956055,2.6587524 v 5.168e-4 A 4.1354899,4.0008328 0 0 0 0.19223633,4.093807 c -0.001512,0.00608 -0.0708758,0.2997311 -0.10076904,0.6118489 A 3.6490361,3.5302185 0 0 0 0.07906494,4.8534505 c 0.0026259,-0.03009 0.0050276,-0.060339 0.008785,-0.0894 -0.0083816,0.1070282 -0.01061797,0.21268 -0.0036174,0.3085083 -0.0029174,-0.026731 -0.0083393,-0.056105 -0.0093017,-0.080615 -0.0012445,-0.031692 -0.0010194,-0.061554 0,-0.090951 A 3.6490361,3.5302185 0 0 0 0.0594279,5.0839274 v 0.024288 a 4.8973903,4.7379246 0 0 0 0.21652425,1.3854452 4.8973903,4.7379246 0 0 0 0.26458333,0.6542236 4.8973903,4.7379246 0 0 0 1.34203692,1.64021 4.8973903,4.7379246 0 0 0 0.3250448,0.217041 C 2.310503,8.1723675 2.7698577,7.3171054 3.4767904,6.8533285 3.1929421,6.6660091 2.9717595,6.440453 2.8101644,6.196521 2.9721856,6.4402245 3.1941128,6.6651077 3.4783407,6.8522949 3.4886474,6.8455451 3.4989354,6.8387228 3.5093465,6.8321411 3.1033233,6.5139034 2.8025467,6.0606775 2.7553874,5.5360962 c 0,0 0.2259868,-0.8149373 1.6185058,-0.8149373 0.1494634,0 0.5747543,-0.4005208 0.5880778,-0.5214152 a 2.4385871,2.3591834 0 0 0 0.00207,-5.168e-4 c -9.5e-6,-1.922e-4 -0.0015,-8.269e-4 -0.00155,-0.00103 3.58e-5,-4.063e-4 4.906e-4,-0.00115 5.168e-4,-0.00155 a 2.4385871,2.3591834 0 0 1 -0.00207,5.167e-4 C 4.9423862,4.1533422 4.1065338,3.8294979 3.7775472,3.5160645 3.6000235,3.3467659 3.5158074,3.2651796 3.4411336,3.2039388 A 1.4644158,1.4167324 0 0 0 3.3150431,3.1109212 c -6.232e-4,-4.116e-4 -0.00144,-0.00114 -0.00207,-0.00155 A 2.2705394,2.1966075 0 0 1 3.2990234,1.9518188 3.6262927,3.5082156 0 0 0 2.120284,2.832902 c 0.023881,-6.117e-4 0.7342107,-0.012799 1.0914063,0.2118734 8.508e-4,5.243e-4 0.00122,0.00103 0.00207,0.00155 C 2.8565619,2.8216537 2.1463692,2.8338413 2.1228678,2.8344523 H 2.120284 C 1.9262134,2.5964564 1.9401831,1.8118816 1.9513021,1.6479614 Z M 0.07493083,4.9009928 a 3.6490361,3.5302185 0 0 1 0.0041341,-0.047542 c -0.0011844,0.013572 -0.0035701,0.026384 -0.0041341,0.040308 -9.44e-5,0.00233 8.108e-5,0.0049 0,0.00723 z M 6.0011841,2.2980509 C 6.1135903,2.645618 6.3254205,3.0036629 6.6817627,3.348116 l -5.168e-4,0.00207 C 6.3245331,3.0050066 6.1133498,2.6461585 6.0011841,2.2980509 Z m 3.0799153,1.5461589 a 4.4349434,4.2905356 0 0 1 0.0062,0.018604 4.4349434,4.2905356 0 0 1 0.025321,0.090434 4.4349434,4.2905356 0 0 1 0.00413,0.020671 4.4349434,4.2905356 0 0 0 -0.035657,-0.1297078 z M 1.3249837,4.1992269 a 1.8472613,1.7871119 0 0 1 5.168e-4,0 1.2575781,1.2166296 0 0 0 1.1585856,0.7033162 c -9.93e-5,8.477e-4 9.81e-5,0.00174 0,0.00258 A 1.2575781,1.2166296 0 0 1 1.3249837,4.1992269 Z m 7.8785889,0.2030884 a 4.4349434,4.2905356 0 0 1 0.00207,0.010852 4.4349434,4.2905356 0 0 1 0.012919,0.092501 4.4349434,4.2905356 0 0 1 0.00207,0.030489 4.4349434,4.2905356 0 0 0 -0.017053,-0.1338419 z m 0.041858,0.4547526 a 4.4349434,4.2905356 0 0 1 0.00155,0.022738 4.4349434,4.2905356 0 0 1 0.00155,0.1870687 4.4349434,4.2905356 0 0 1 -0.00103,0.00878 4.4349434,4.2905356 0 0 0 -0.00207,-0.2185913 z M 9.18962,5.7040446 a 4.4349434,4.2905356 0 0 1 -0.00155,0.01602 4.4349434,4.2905356 0 0 1 -0.023771,0.1198893 4.4349434,4.2905356 0 0 0 0.025322,-0.135909 z m -0.025322,0.1374593 a 4.4349434,4.2905356 0 0 1 -0.012402,0.062528 4.4349434,4.2905356 0 0 1 -0.021187,0.091467 4.4349434,4.2905356 0 0 1 -0.023771,0.09095 4.4349434,4.2905356 0 0 1 -0.00465,0.014469 4.4349434,4.2905356 0 0 0 0.062012,-0.2594157 z M 9.0015177,6.4213135 a 4.4349434,4.2905356 0 0 1 -0.01757,0.047542 4.4349434,4.2905356 0 0 0 0.01757,-0.047542 z"
       style="fill:#fff59d;stroke:#fff59d;stroke-width:0.124278;fill-opacity:1;stroke-opacity:1"
       id="path2" />
    <path
       d="M 6.1807642,12.7 Q 5.6339201,12.7 5.1353275,12.506996 4.6367349,12.313993 4.2400045,11.938708 3.7253281,11.456198 3.4947961,10.79677 3.264264,10.137339 3.264264,9.4296589 q 0,-0.8363491 0.4074519,-1.3563871 0.4074527,-0.5200371 1.1901896,-0.5200371 0.1501145,0 0.2841444,0.026804 0.1340307,0.026804 0.273422,0.080419 L 7.9821324,8.6147535 10.544792,7.6604576 q 0.139391,-0.053616 0.273422,-0.080419 0.134031,-0.026804 0.284145,-0.026804 0.782736,0 1.190189,0.5200371 Q 12.7,8.5933097 12.7,9.4296589 q 0,0.7076801 -0.230532,1.3671111 -0.230532,0.659428 -0.745209,1.141938 -0.396729,0.375285 -0.895323,0.568288 Q 10.330344,12.7 9.7834999,12.7 9.0758198,12.7 8.582588,12.378327 L 8.0893561,12.056654 H 7.874908 L 7.3816761,12.378327 Q 6.8884443,12.7 6.1807642,12.7 Z m 0.3967295,-1.715588 q 0.3109505,0 0.4932319,-0.144753 0.1822813,-0.144753 0.1822813,-0.391369 0,-0.418175 -0.5575663,-0.7988212 -0.5575664,-0.3806457 -1.1687442,-0.3806457 -0.3109505,0 -0.4932319,0.1447529 -0.1822813,0.1447521 -0.1822813,0.3913683 0,0.4181737 0.5575664,0.7988207 0.5575663,0.380647 1.1687441,0.380647 z m 2.8092766,0 q 0.6111786,0 1.1687437,-0.380647 0.557567,-0.380647 0.557567,-0.7988207 0,-0.2573386 -0.17692,-0.3967299 -0.17692,-0.1393913 -0.498593,-0.1393913 -0.6111782,0 -1.1687445,0.3806457 Q 8.711257,10.030115 8.711257,10.44829 q 0,0.246616 0.1769199,0.391369 0.1769206,0.144753 0.4985934,0.144753 z"
       id="path1"
       style="fill:#fff59d;fill-opacity:1;stroke-width:0.0107225" />
  </g>
</svg>
