<?xml version="1.0" encoding="UTF-8" standalone="no"?>
<!-- Created with Inkscape (http://www.inkscape.org/) -->

<svg
   width="48"
   height="48"
   viewBox="0 0 12.7 12.7"
   version="1.1"
   id="svg1"
   inkscape:version="1.3.2 (091e20ef0f, 2023-11-25, custom)"
   sodipodi:docname="firefox-active.svg"
   xmlns:inkscape="http://www.inkscape.org/namespaces/inkscape"
   xmlns:sodipodi="http://sodipodi.sourceforge.net/DTD/sodipodi-0.dtd"
   xmlns="http://www.w3.org/2000/svg"
   xmlns:svg="http://www.w3.org/2000/svg">
  <sodipodi:namedview
     id="namedview1"
     pagecolor="#ffffff"
     bordercolor="#000000"
     borderopacity="0.25"
     inkscape:showpageshadow="2"
     inkscape:pageopacity="0.0"
     inkscape:pagecheckerboard="0"
     inkscape:deskcolor="#d1d1d1"
     inkscape:document-units="mm"
     inkscape:zoom="3.6966093"
     inkscape:cx="61.001848"
     inkscape:cy="63.977548"
     inkscape:window-width="1920"
     inkscape:window-height="1080"
     inkscape:window-x="0"
     inkscape:window-y="0"
     inkscape:window-maximized="1"
     inkscape:current-layer="layer1" />
  <defs
     id="defs1" />
  <g
     inkscape:label="Livello 1"
     inkscape:groupmode="layer"
     id="layer1">
    <path
       id="path76"
       style="fill:#666666;fill-opacity:1;stroke:#666666;stroke-width:0.159402;stroke-opacity:1"
       d="m 3.5350944,7.0997211 c 0,0 0.2899291,-1.0452866 2.0760159,-1.0452866 0.1930156,0 0.7454853,-0.5213106 0.7553712,-0.6724515 A 3.1277989,3.0259535 0 0 1 4.0084778,5.2923019 2.3693481,2.2921989 0 0 0 1.6990926,5.381983 1.6130043,1.5604826 0 0 0 3.1869848,6.2874174 c -0.1163605,0.9935474 0.4265476,2.1510921 1.7405472,2.7594189 0.029333,0.013638 0.056884,0.02838 0.087027,0.04139 C 4.2475194,8.7048874 3.6141806,7.979913 3.5350944,7.1001915 Z M 9.2477841,5.1085498 c -0.027389,-0.024302 -0.059637,-0.049387 -0.094158,-0.07463 -0.012806,-0.00925 -0.025443,-0.0185 -0.03906,-0.027751 A 2.1683911,2.0977853 0 0 0 7.6000986,4.6504236 C 9.8592443,5.743216 9.2531322,9.50606 6.1222537,9.3649533 A 2.7939508,2.702976 0 0 1 5.3049748,9.2124012 Q 5.2127612,9.1790059 5.1205477,9.139339 C 5.0850566,9.1236615 5.0495648,9.107984 5.0145593,9.0904238 l 0.00437,0.00266 C 5.4555301,9.3814147 7.6119282,10.08585 9.8662122,8.3091612 l 0.00356,-0.00784 C 9.9260129,8.1743259 10.672146,6.3791359 9.2474585,5.1091762 Z M 8.5703643,4.2964026 a 3.4195107,3.3081668 0 0 1 0.5834236,0.7368902 c 0.034519,0.025243 0.06677,0.050328 0.094158,0.07463 C 10.671986,6.3778824 9.925852,8.1730724 9.8702648,8.3000683 11.027064,7.3780149 11.766391,6.0141408 11.544366,4.6062101 10.833886,2.8925484 9.6287921,2.2011259 8.6466957,0.69755626 8.596945,0.62151545 8.5471892,0.54531787 8.4987328,0.46488712 8.4710193,0.41894924 8.4488199,0.37755778 8.4295321,0.33945896 a 1.1430241,1.1058057 0 0 1 -0.093672,-0.24066521 0.01620621,0.01567852 0 0 0 -0.014259,-0.01567872 0.02236457,0.02163635 0 0 0 -0.011833,0 c -8.109e-4,0 -0.00212,0.0014121 -0.00306,0.0017259 -9.98e-4,3.1361e-4 -0.00306,0.0017259 -0.00455,0.0023534 C 8.0592277,0.19866853 6.6183335,2.4060466 8.571182,4.2937399 Z M 0.13243809,6.6952155 C 0.6171659,9.4656092 3.2132389,11.582209 6.1595281,11.662169 8.8870338,11.736799 10.629201,10.205008 11.348757,8.7114728 A 5.6883803,5.5031589 0 0 0 11.544204,4.609973 v -0.0058 c 0,-0.00455 -9.98e-4,-0.00721 0,-0.0058 l 0.0011,0.010191 c 0.222835,1.4074603 -0.51714,2.7703937 -1.6741023,3.6938582 l -0.00356,0.00784 C 7.6133927,10.086637 5.4563459,9.3817303 5.0203986,9.0941868 Q 4.9746972,9.073018 4.9289956,9.0501293 C 3.6148288,8.4424293 3.0717587,7.2847277 3.1884434,6.2907098 A 1.6130043,1.5604826 0 0 1 1.700551,5.3852756 2.3693481,2.2921989 0 0 1 4.0099364,5.2955944 3.1277989,3.0259535 0 0 0 6.3679399,5.3852756 C 6.3655091,5.3358882 5.2724004,4.9149201 4.8461769,4.5088466 4.6184796,4.2916992 4.5103841,4.1871234 4.4146055,4.108574 A 1.8783,1.8171399 0 0 0 4.2525433,3.9897309 C 4.2152691,3.9651155 4.1732949,3.9384622 4.1228937,3.9064779 3.664744,3.6183068 2.7536307,3.6341423 2.7234871,3.634926 H 2.720568 C 2.4716419,3.3296654 2.4891446,2.3231048 2.5034061,2.1128559 A 1.1227663,1.0862075 0 0 0 2.2936977,2.2205672 4.573393,4.424477 0 0 0 1.6798063,2.729335 5.4841821,5.3056096 0 0 0 1.0902244,3.4093122 v 9.414e-4 -0.0011 A 5.3042931,5.1315781 0 0 0 0.24750217,5.2498102 c -0.003081,0.012386 -0.22623873,0.9562326 -0.1161985,1.4457159 z M 4.1201385,3.9044397 c 0.050887,0.031357 0.092862,0.058638 0.1296496,0.083253 A 2.9122563,2.8174292 0 0 1 4.2321234,2.502467 4.6511827,4.4997338 0 0 0 2.720246,3.632888 c 0.03063,-7.845e-4 0.9417429,-0.01662 1.3998925,0.2715517 z M 9.114893,5.0050715 c 0.013616,0.00925 0.026254,0.0185 0.03906,0.027751 A 3.4195107,3.3081668 0 0 0 8.5705289,4.2967159 C 6.6176804,2.4074548 8.0588984,0.20148771 8.30183,0.0886024 L 8.30426,0.0851507 C 6.7265881,0.9788261 6.1909723,2.6329095 6.1423543,3.4607351 c 0.073252,-0.00486 0.1458559,-0.010819 0.2207284,-0.010819 a 3.169935,3.0667176 0 0 1 2.7518103,1.554841 z m 3.05325,-0.7133723 C 11.895231,3.6564056 11.341626,2.9704706 10.90811,2.7536368 a 6.5262417,6.3137384 0 0 1 0.636094,1.8437934 v 0.0058 l 0.0011,0.00643 A 5.6883803,5.5031589 0 0 1 11.349892,8.711159 c -0.71988,1.494319 -2.4617236,3.025954 -5.1892293,2.950697 -2.9462893,-0.08075 -5.54252443,-2.1965606 -6.02709018,-4.9669541 -0.08832386,-0.4369601 0,-0.6584976 0.0444052,-1.0136159 A 4.680354,4.5279553 0 0 0 0.07701285,6.519773 V 6.55113 A 6.2815274,6.0769923 0 0 0 12.547693,7.5786999 c 0.01053,-0.078393 0.01912,-0.1560013 0.02852,-0.2351778 A 6.4597962,6.2494564 0 0 0 12.168792,4.2909152 Z m 0,0 C 11.895231,3.6564056 11.341626,2.9704706 10.90811,2.7536368 a 6.5262417,6.3137384 0 0 1 0.636094,1.8437934 v 0.0058 l 0.0011,0.00643 A 5.6883803,5.5031589 0 0 1 11.349892,8.711159 c -0.71988,1.494319 -2.4617236,3.025954 -5.1892293,2.950697 -2.9462893,-0.08075 -5.54252443,-2.1965606 -6.02709018,-4.9669541 -0.08832386,-0.4369601 0,-0.6584976 0.0444052,-1.0136159 A 4.680354,4.5279553 0 0 0 0.07701285,6.519773 V 6.55113 A 6.2815274,6.0769923 0 0 0 12.547693,7.5786999 c 0.01053,-0.078393 0.01912,-0.1560013 0.02852,-0.2351778 A 6.4597962,6.2494564 0 0 0 12.168792,4.2909152 Z" />
  </g>
</svg>
