<?xml version="1.0" encoding="UTF-8" standalone="no"?>
<!-- Created with Inkscape (http://www.inkscape.org/) -->

<svg
   version="1.0"
   width="48"
   height="48"
   id="svg3"
   sodipodi:docname="inkscape-active.svg"
   inkscape:version="1.3.2 (091e20ef0f, 2023-11-25, custom)"
   xmlns:inkscape="http://www.inkscape.org/namespaces/inkscape"
   xmlns:sodipodi="http://sodipodi.sourceforge.net/DTD/sodipodi-0.dtd"
   xmlns="http://www.w3.org/2000/svg"
   xmlns:svg="http://www.w3.org/2000/svg">
  <defs
     id="defs3" />
  <sodipodi:namedview
     id="namedview3"
     pagecolor="#ffffff"
     bordercolor="#000000"
     borderopacity="0.25"
     inkscape:showpageshadow="2"
     inkscape:pageopacity="0.0"
     inkscape:pagecheckerboard="0"
     inkscape:deskcolor="#d1d1d1"
     inkscape:zoom="6.2611139"
     inkscape:cx="8.8642374"
     inkscape:cy="48.393945"
     inkscape:window-width="1896"
     inkscape:window-height="1017"
     inkscape:window-x="12"
     inkscape:window-y="51"
     inkscape:window-maximized="1"
     inkscape:current-layer="svg3" />
  <path
     id="path1"
     d="M 23.591397,1.2346962e-5 C 22.107203,-0.00299493 20.637676,0.54334038 19.572592,1.6480128 L 1.8532715,20.021926 c -5.9868937,7.512843 4.0743547,6.63866 8.3874505,8.802563 1.547175,1.602541 -5.9302474,2.785392 -4.3830727,4.389273 1.5471746,1.602544 9.3555737,3.087459 10.9053867,4.69 1.547175,1.602544 -3.166805,3.302562 -1.61963,4.905106 1.547175,1.602544 5.125532,0.08429 5.79558,3.783901 0.477473,2.643729 6.448465,1.136183 9.368708,-1.029054 1.547175,-1.603881 -2.959681,-1.453031 -1.412506,-3.055575 3.847492,-3.986979 7.429957,-1.44865 8.746308,-5.443648 0.650264,-1.974111 -5.663934,-3.043341 -4.114121,-4.645885 4.45159,-2.634373 19.83773,-4.349296 12.537124,-11.747191 L 27.697533,1.6480128 C 26.574413,0.5553695 25.07559,0.00301963 23.591397,1.2346962e-5 Z M 23.750603,1.7485165 c 1.059643,0.00568 2.115625,0.4074778 2.876021,1.1880327 l 7.010238,7.2146038 c 0.66477,0.688331 0.655588,2.022229 0.283635,2.405825 l -3.480904,-2.821415 -0.684484,4.178084 -2.908223,-1.555588 -4.657434,2.981697 -1.54183,-6.2857913 -2.50222,4.3866623 h -3.825078 c -1.559046,0 -1.742478,-2.004888 -0.325883,-3.440361 2.474424,-2.7065472 5.314253,-5.465183 6.857471,-7.0637168 0.775565,-0.8032766 1.839048,-1.1937131 2.898691,-1.1880327 z M 15.331981,29.818823 c 0.473518,0.298055 7.635668,1.772417 9.385969,2.066462 0.606735,0.129647 0.176744,0.763203 -0.659496,1.190904 -1.886157,0.507896 -11.034707,-3.257366 -8.726473,-3.257366 z m 27.84748,5.05051 c -1.440997,0.05029 -2.86169,0.796441 -3.253428,2.195159 0,0.911537 6.627936,1.508806 6.627936,-0.215366 -0.472199,-1.384683 -1.933512,-2.030082 -3.374508,-1.979793 z m -30.660386,3.953843 c -2.008514,0.108125 -4.163787,1.580852 -2.449925,3.085074 1.569598,1.375327 3.994045,-0.342154 4.720807,-2.261465 -0.475247,-0.639882 -1.357921,-0.872756 -2.270882,-0.823609 z m 26.57589,0.113817 c -2.023331,1.839117 0.226851,3.704979 2.221162,2.516771 0.4445,-0.457107 -0.01186,-2.059664 -2.221162,-2.516771 z"
     style="fill:#666666;fill-opacity:1;stroke-width:0.132775" />
</svg>
