<?xml version="1.0" encoding="UTF-8" standalone="no"?>
<!-- Created with Inkscape (http://www.inkscape.org/) -->

<svg
   width="48"
   height="48"
   viewBox="0 0 12.7 12.7"
   version="1.1"
   id="svg1"
   xml:space="preserve"
   inkscape:version="1.4.2 (ebf0e940d0, 2025-05-08)"
   sodipodi:docname="krita-current.svg"
   xmlns:inkscape="http://www.inkscape.org/namespaces/inkscape"
   xmlns:sodipodi="http://sodipodi.sourceforge.net/DTD/sodipodi-0.dtd"
   xmlns="http://www.w3.org/2000/svg"
   xmlns:svg="http://www.w3.org/2000/svg"><sodipodi:namedview
     id="namedview1"
     pagecolor="#505050"
     bordercolor="#eeeeee"
     borderopacity="1"
     inkscape:showpageshadow="0"
     inkscape:pageopacity="0"
     inkscape:pagecheckerboard="0"
     inkscape:deskcolor="#505050"
     inkscape:document-units="mm"
     inkscape:zoom="7.7522519"
     inkscape:cx="23.154562"
     inkscape:cy="41.665313"
     inkscape:window-width="1890"
     inkscape:window-height="1015"
     inkscape:window-x="12"
     inkscape:window-y="12"
     inkscape:window-maximized="1"
     inkscape:current-layer="layer1" /><defs
     id="defs1" /><g
     inkscape:label="Layer 1"
     inkscape:groupmode="layer"
     id="layer1"><path
       style="fill:#666666;stroke:none;stroke-width:0.0561179;fill-opacity:1"
       d="m 0.27848353,0.39345077 c -0.448069,0.08079 -0.269526,0.552613 -0.05933,0.76507503 0.471051,0.476143 0.95052097,0.946407 1.40566197,1.437718 0.104973,0.113314 0.211145,0.224712 0.319537,0.334889 0.04065,0.04132 0.109405,0.0915 0.0946,0.157622 -0.02236,0.09989 -0.129119,0.210204 -0.183202,0.296944 -0.129247,0.207282 -0.253569,0.428041 -0.348674,0.653305 -0.357878,0.847662 -0.55577797,1.748384 -0.51530697,2.6726076 0.03048,0.6960225 0.19411697,1.391725 0.46253897,2.0341515 1.04159,2.4928901 3.811979,3.9672841 6.45596,3.4705181 C 8.7955696,12.049945 9.6347908,11.68263 10.360159,11.14686 12.678433,9.4345395 13.390924,6.0967568 11.967895,3.5935688 11.68052,3.0880618 11.327867,2.5923548 10.894681,2.2003938 9.3129093,0.76915677 7.0624455,0.17763377 5.0149435,0.88448277 4.5141165,1.0573808 4.0274205,1.2812168 3.5895535,1.5826738 c -0.13649,0.09397 -0.271989,0.190169 -0.400835,0.294482 -0.04134,0.03347 -0.105257,0.119849 -0.1636,0.114257 -0.05601,-0.0054 -0.116933,-0.06818 -0.163108,-0.09748 -0.127812,-0.08112 -0.257352,-0.159945 -0.386045,-0.239649 -0.477015,-0.295432 -0.958348,-0.588386 -1.42539,-0.89911903 -0.20459397,-0.136121 -0.50450697,-0.409953 -0.77208597,-0.361709 M 9.187182,10.319637 C 9.233426,10.126643 9.3216935,9.9938638 9.3045776,9.7851153 9.2725316,9.3942474 8.8859936,9.045398 8.6871221,8.7309201 8.5842495,8.5682503 8.5109255,8.3974803 8.465195,8.2112464 8.442441,8.1185724 8.45223,7.9720192 8.383201,7.9026041 8.1998818,7.7182795 7.9141133,7.5842985 7.7018275,7.4307507 7.4734705,7.2655795 7.2308925,7.0222718 6.9748555,6.9067 6.9029755,6.874252 6.8139595,6.89441 6.7372915,6.883433 6.5659705,6.858901 6.3967515,6.82834 6.2324665,6.7736214 5.6748965,6.5879093 5.1614515,6.2225198 4.7205075,5.8418968 c -0.70286,-0.606711 -1.287468,-1.358191 -1.932152,-2.025548 -0.225747,-0.233685 -0.441949,-0.54742 -0.713282,-0.7276 0.02782,-0.104628 0.12033,-0.198528 0.18709,-0.282109 0.158562,-0.198517 0.328919,-0.386612 0.510759,-0.563999 0.06567,-0.06406 0.18238,-0.211046 0.28211,-0.204044 0.122089,0.0086 0.269708,0.144314 0.371194,0.207481 0.280779,0.174764 0.561094,0.352787 0.846325,0.520017 0.99531,0.583543 2.010881,1.131384 2.804912,1.98561 0.200292,0.215477 0.374851,0.474888 0.496977,0.742391 0.05303,0.116157 0.06957,0.26463 0.1398859,0.369855 0.13648,0.204232 0.4064847,0.372924 0.5882878,0.537581 0.161962,0.146687 0.327361,0.2912631 0.4836768,0.443934 0.086744,0.084721 0.1751992,0.2107994 0.2821093,0.2695409 0.09497,0.052182 0.2999846,0.00381 0.4157372,0.026236 0.2445702,0.047382 0.4506753,0.2488109 0.5863515,0.4463972 0.501168,0.7298444 0.295502,1.6658036 -0.2853166,2.2840324 C 9.6447819,10.021108 9.399611,10.289474 9.1871824,10.319639 M 7.6133075,6.0279138 c -0.235961,0.03208 -0.413748,0.360474 -0.503899,0.5500687 -0.03825,0.080437 -0.08075,0.1921377 -0.03577,0.2790039 0.04338,0.083783 0.168678,0.143914 0.242708,0.1984179 0.182436,0.134316 0.3648103,0.2685445 0.5493704,0.3999628 0.1120642,0.079798 0.2262002,0.158511 0.3415003,0.2335667 0.040267,0.026215 0.09598,0.072916 0.1478359,0.061934 C 8.4387621,7.7331408 8.5322102,7.5485682 8.5893867,7.4848105 8.6624247,7.4033685 8.8886595,7.2619834 8.9058997,7.1566694 8.9188907,7.0773194 8.7770477,6.9905553 8.725618,6.9453173 8.5185101,6.763144 8.3120822,6.5800119 8.1032809,6.3998088 c -0.1084341,-0.09358 -0.21513,-0.188946 -0.3224132,-0.283816 -0.046879,-0.04146 -0.09866,-0.09744 -0.1675632,-0.08808 m -6.013368,0.9658075 c 0.143166,0.36755 0.501042,0.717069 0.780576,0.985673 0.997159,0.9581755 2.434574,1.5012478 3.807399,1.1596308 0.402791,-0.1002302 0.795089,-0.2569832 1.158132,-0.4589531 0.181515,-0.1009814 0.3892603,-0.2986955 0.5939128,-0.3351988 0.00132,0.4860224 0.3520731,0.8730835 0.6192996,1.247217 0.2042345,0.2859391 0.3628443,0.6177078 0.2129102,0.9651088 -0.089495,0.207368 -0.2697877,0.290556 -0.4610153,0.385481 -0.44246,0.219636 -0.9628713,0.336264 -1.4550863,0.342119 -0.409898,0.0049 -0.811528,0.0073 -1.21752,-0.06864 C 4.2916375,10.964223 3.0987035,10.156158 2.3448475,9.0130241 2.0437645,8.5564682 1.7986945,8.0312898 1.6706805,7.4985463 1.6401805,7.3715966 1.5211495,7.109205 1.5999405,6.9937202 Z"
       id="path1" /></g></svg>
