<?xml version="1.0" encoding="UTF-8" standalone="no"?>
<!-- Created with Inkscape (http://www.inkscape.org/) -->

<svg
   width="48"
   height="48"
   viewBox="0 0 12.7 12.7"
   version="1.1"
   id="svg1"
   xml:space="preserve"
   inkscape:version="1.4.2 (ebf0e940d0, 2025-05-08)"
   sodipodi:docname="oblivion-current.svg"
   xmlns:inkscape="http://www.inkscape.org/namespaces/inkscape"
   xmlns:sodipodi="http://sodipodi.sourceforge.net/DTD/sodipodi-0.dtd"
   xmlns="http://www.w3.org/2000/svg"
   xmlns:svg="http://www.w3.org/2000/svg"><sodipodi:namedview
     id="namedview1"
     pagecolor="#505050"
     bordercolor="#eeeeee"
     borderopacity="1"
     inkscape:showpageshadow="0"
     inkscape:pageopacity="0"
     inkscape:pagecheckerboard="0"
     inkscape:deskcolor="#505050"
     inkscape:document-units="mm"
     inkscape:zoom="14.160893"
     inkscape:cx="8.4034247"
     inkscape:cy="25.633976"
     inkscape:window-width="1890"
     inkscape:window-height="1015"
     inkscape:window-x="12"
     inkscape:window-y="12"
     inkscape:window-maximized="1"
     inkscape:current-layer="layer1" /><defs
     id="defs1" /><g
     inkscape:label="Layer 1"
     inkscape:groupmode="layer"
     id="layer1"><path
       style="fill:#666666;stroke:none;fill-opacity:1"
       d="M 8.8233189,0.03875861 C 7.1789083,0.25202207 5.4775454,0.03155491 3.8279856,0.1037934 3.2741676,0.12804644 2.376974,-0.07863862 1.9975262,0.49429927 1.8507234,0.71596016 2.1225742,0.93495324 2.2611949,1.0791266 2.5561527,1.3858999 2.7544518,1.7418407 2.6875988,2.1797933 2.6308171,2.551768 2.4546568,2.9095045 2.3743451,3.2804599 2.2287962,3.9527425 2.1583999,4.7098765 2.1364814,5.3971265 c -0.015304,0.47985 0.1777809,1.0170161 0.2889838,1.4816667 0.2754514,1.1509459 0.5498057,2.3105262 1.3481012,3.2173328 0.3396206,0.385786 0.6895211,0.762844 1.0352721,1.142968 0.1447812,0.159175 0.3462825,0.384199 0.5846639,0.370318 0.2569637,-0.01496 0.1902846,-0.263425 0.095479,-0.412619 C 5.1644822,10.686139 4.8961998,10.155771 4.5963552,9.6304598 3.4516119,7.6249324 3.8690305,4.8832697 4.9111766,2.9417933 5.3019273,2.2138403 5.8893126,0.9447498 6.9183189,1.2503216 7.6675381,1.472808 7.9851757,2.5838099 8.2333633,3.2381266 8.652423,4.3429273 8.7825514,5.3360754 8.9200714,6.4977932 9.0648359,7.7207069 9.1423382,8.9273064 8.7419841,10.096126 8.4769066,10.870013 8.266537,11.472334 7.8074494,12.17046 c -0.068472,0.104124 -0.3426399,0.504092 -0.039948,0.508359 0.2376773,0.0034 0.5037108,-0.286022 0.6748179,-0.423725 C 9.0674653,11.751986 9.6404046,11.124627 9.9794176,10.39246 10.347375,9.5977835 10.425767,8.9214708 10.572738,8.0641265 10.859097,6.3936729 10.777815,4.7386835 10.403829,3.0687932 10.293388,2.5756625 10.009925,2.1471447 9.8900472,1.6717933 9.7989392,1.3105233 10.20784,0.92824952 10.431986,0.69812662 10.53911,0.58814625 10.755511,0.41645389 10.673802,0.23873089 10.596756,0.07115198 10.368502,0.11034855 10.220319,0.1037934 9.7681582,0.08378945 9.2725357,-0.01950011 8.8233189,0.03875861 M 6.3256523,4.2817605 C 5.549886,4.5250021 5.7250956,5.6854397 6.0288616,6.2014599 6.1862092,6.468753 6.3862028,6.7966122 6.7489856,6.6982887 7.4956842,6.4959135 7.7762549,5.5217514 7.4303697,4.8891266 7.2128969,4.4913685 6.8120977,4.1292356 6.3256523,4.2817605 Z"
       id="path1" /></g></svg>
