<?xml version="1.0" encoding="UTF-8" standalone="no"?>
<!-- Created with Inkscape (http://www.inkscape.org/) -->

<svg
   version="1.1"
   width="48"
   height="48"
   id="svg2872"
   inkscape:version="1.4.2 (ebf0e940d0, 2025-05-08)"
   sodipodi:docname="octave-current.svg"
   xmlns:inkscape="http://www.inkscape.org/namespaces/inkscape"
   xmlns:sodipodi="http://sodipodi.sourceforge.net/DTD/sodipodi-0.dtd"
   xmlns:xlink="http://www.w3.org/1999/xlink"
   xmlns="http://www.w3.org/2000/svg"
   xmlns:svg="http://www.w3.org/2000/svg"
   xmlns:rdf="http://www.w3.org/1999/02/22-rdf-syntax-ns#"
   xmlns:cc="http://creativecommons.org/ns#"
   xmlns:dc="http://purl.org/dc/elements/1.1/">
  <metadata
     id="metadata2942">
    <rdf:RDF>
      <cc:Work
         rdf:about="">
        <dc:format>image/svg+xml</dc:format>
        <dc:type
           rdf:resource="http://purl.org/dc/dcmitype/StillImage" />
      </cc:Work>
    </rdf:RDF>
  </metadata>
  <sodipodi:namedview
     pagecolor="#ffffff"
     bordercolor="#666666"
     borderopacity="1"
     objecttolerance="10"
     gridtolerance="10"
     guidetolerance="10"
     inkscape:pageopacity="0"
     inkscape:pageshadow="2"
     inkscape:window-width="1890"
     inkscape:window-height="1015"
     id="namedview2940"
     showgrid="false"
     inkscape:zoom="8.4631066"
     inkscape:cx="-7.7394748"
     inkscape:cy="29.42182"
     inkscape:window-x="12"
     inkscape:window-y="12"
     inkscape:window-maximized="0"
     inkscape:current-layer="svg2872"
     inkscape:showpageshadow="0"
     inkscape:pagecheckerboard="0"
     inkscape:deskcolor="#505050" />
  <defs
     id="defs2874">
    <radialGradient
       cx="182.9837"
       cy="395.04871"
       r="148.95309"
       fx="182.9837"
       fy="395.04871"
       id="radialGradient3033"
       xlink:href="#linearGradient3755"
       gradientUnits="userSpaceOnUse"
       gradientTransform="matrix(0.22914334,-0.24901479,0.7643572,0.83064268,-272.85337,-159.69482)" />
    <linearGradient
       id="linearGradient3755">
      <stop
         id="stop3757"
         style="stop-color:#008cbe;stop-opacity:1"
         offset="0" />
      <stop
         id="stop3759"
         style="stop-color:#b2ffff;stop-opacity:1"
         offset="1" />
    </linearGradient>
  </defs>
  <path
     id="path13"
     style="fill:#fff59d;fill-opacity:1"
     d="M 20.984375 0.013671875 C 16.158576 -0.16767802 11.673366 1.4486186 8.4179688 4.9863281 C 5.8176089 7.812195 4.3468388 11.490838 3.9453125 15.529297 L 3.1269531 15.529297 C 1.4029009 15.529297 2.9605947e-16 16.93611 0 18.660156 L 0 28.142578 C 0 29.866639 1.4029009 31.269531 3.1269531 31.269531 L 7.2714844 31.269531 C 8.6147126 33.86385 10.343867 36.361017 12.443359 38.642578 C 21.380036 48.354258 33.909672 50.759064 41.628906 44.669922 L 45.748047 44.669922 C 46.902817 44.669922 47.849609 43.723137 47.849609 42.568359 L 47.849609 36.839844 C 47.849609 36.333133 47.667414 35.865733 47.365234 35.501953 C 49.0849 28.621336 47.287334 20.164076 42.316406 13.007812 C 42.315623 13.061984 42.308783 13.115147 42.302734 13.167969 C 42.309616 13.107715 42.316406 13.04635 42.316406 12.984375 L 42.316406 8.9589844 C 42.316406 8.0624779 41.576198 7.3242188 40.679688 7.3242188 L 37.353516 7.3242188 C 32.31894 2.7157048 26.434992 0.21850195 20.984375 0.013671875 z M 24.962891 4.359375 C 28.3815 4.4442267 32.009342 5.6885627 35.318359 8.0253906 C 35.131807 8.2908899 35.021484 8.6130194 35.021484 8.9589844 L 35.021484 12.984375 C 35.021484 13.88089 35.759739 14.617187 36.65625 14.617188 L 40.679688 14.617188 C 40.985586 14.617188 41.273224 14.531373 41.519531 14.382812 C 46.002217 20.97708 46.956565 29.026694 43.970703 34.740234 L 40.019531 34.740234 C 38.864761 34.740234 37.919922 35.68508 37.919922 36.839844 L 37.919922 40.449219 C 31.943233 43.045951 23.912637 40.866627 18.001953 34.443359 C 16.80157 33.138877 15.762822 31.739784 14.888672 30.283203 C 14.877611 30.294957 14.864755 30.304824 14.853516 30.316406 C 15.399758 29.753208 15.738281 28.986807 15.738281 28.142578 L 15.738281 18.660156 C 15.738281 16.93611 14.333427 15.529297 12.609375 15.529297 L 11.748047 15.529297 C 12.221173 12.799195 13.35028 10.314827 15.164062 8.34375 C 17.721941 5.5640575 21.217757 4.2664183 24.962891 4.359375 z M 42.300781 13.205078 C 42.292699 13.263753 42.279874 13.320377 42.265625 13.376953 C 42.279842 13.320407 42.292725 13.263711 42.300781 13.205078 z M 42.255859 13.416016 C 42.246551 13.449423 42.234024 13.48114 42.222656 13.513672 C 42.233992 13.481181 42.246577 13.449377 42.255859 13.416016 z M 42.095703 13.796875 C 42.060626 13.857038 42.0227 13.915649 41.980469 13.970703 C 42.022513 13.915784 42.060764 13.856863 42.095703 13.796875 z M 41.84375 14.126953 C 41.816552 14.154489 41.786878 14.179493 41.757812 14.205078 C 41.786825 14.179477 41.8166 14.154501 41.84375 14.126953 z M 14.75 30.416016 C 14.706948 30.456508 14.66443 30.497125 14.619141 30.535156 C 14.664378 30.497129 14.706993 30.456497 14.75 30.416016 z M 14.53125 30.603516 C 14.481781 30.642161 14.43264 30.681122 14.380859 30.716797 C 14.432757 30.681016 14.481673 30.642279 14.53125 30.603516 z M 14.253906 30.796875 C 14.211231 30.823366 14.169005 30.850536 14.125 30.875 C 14.169073 30.850491 14.211165 30.823418 14.253906 30.796875 z M 13.978516 30.949219 C 13.935554 30.970229 13.89364 30.992646 13.849609 31.011719 C 13.893502 30.992691 13.935685 30.970174 13.978516 30.949219 z M 13.410156 31.162109 C 13.353149 31.177224 13.296499 31.193155 13.238281 31.205078 C 13.296354 31.193165 13.353292 31.177202 13.410156 31.162109 z M 45.96875 34.751953 C 46.009962 34.756295 46.049349 34.764772 46.089844 34.771484 C 46.049377 34.76478 46.009938 34.756287 45.96875 34.751953 z M 46.185547 34.787109 C 46.227155 34.796024 46.267912 34.808959 46.308594 34.820312 C 46.267846 34.808938 46.227228 34.796033 46.185547 34.787109 z M 46.402344 34.847656 C 46.433922 34.85807 46.465182 34.869004 46.496094 34.880859 C 46.46523 34.869004 46.433874 34.858073 46.402344 34.847656 z M 46.623047 34.933594 C 46.644257 34.943377 46.664719 34.954381 46.685547 34.964844 C 46.664719 34.954372 46.644257 34.943386 46.623047 34.933594 z M 46.806641 35.029297 C 46.835627 35.046296 46.864489 35.063707 46.892578 35.082031 C 46.864311 35.06354 46.835818 35.046445 46.806641 35.029297 z M 46.980469 35.144531 C 47.007609 35.164276 47.034401 35.184093 47.060547 35.205078 C 47.0345 35.184123 47.007504 35.164254 46.980469 35.144531 z M 47.15625 35.287109 C 47.178534 35.30729 47.201253 35.326555 47.222656 35.347656 C 47.201462 35.326759 47.178305 35.307104 47.15625 35.287109 z " />
</svg>
