<?xml version="1.0" encoding="UTF-8" standalone="no"?>
<svg
   viewBox="0 0 48 48"
   version="1.1"
   id="svg2"
   sodipodi:docname="spotify-active.svg"
   inkscape:version="1.3.2 (091e20ef0f, 2023-11-25, custom)"
   width="48"
   height="48"
   xmlns:inkscape="http://www.inkscape.org/namespaces/inkscape"
   xmlns:sodipodi="http://sodipodi.sourceforge.net/DTD/sodipodi-0.dtd"
   xmlns="http://www.w3.org/2000/svg"
   xmlns:svg="http://www.w3.org/2000/svg">
  <defs
     id="defs2" />
  <sodipodi:namedview
     id="namedview2"
     pagecolor="#ffffff"
     bordercolor="#000000"
     borderopacity="0.25"
     inkscape:showpageshadow="2"
     inkscape:pageopacity="0.0"
     inkscape:pagecheckerboard="0"
     inkscape:deskcolor="#d1d1d1"
     inkscape:zoom="7.3400007"
     inkscape:cx="10.694822"
     inkscape:cy="28.610351"
     inkscape:window-width="1896"
     inkscape:window-height="1017"
     inkscape:window-x="12"
     inkscape:window-y="51"
     inkscape:window-maximized="1"
     inkscape:current-layer="svg2" />
  <path
     id="path1"
     d="M 24,0 C 10.751626,0 0,10.751626 0,24 0,37.248374 10.751626,48 24,48 37.248374,48 48,37.248374 48,24 48,10.751626 37.248374,0 24,0 Z m -3.532258,12.522618 c 7.064509,0 14.467785,1.470858 19.877457,4.625694 0.754838,0.435483 1.248425,1.035635 1.248425,2.187247 0,1.316128 -1.06463,2.254726 -2.245275,2.254726 -0.503225,0 -0.812942,-0.125844 -1.248424,-0.377457 -6.890316,-4.1129 -19.209535,-5.099923 -27.18372,-2.874118 -0.348388,0.09677 -0.783909,0.251575 -1.2484252,0.251575 -1.2774181,0 -2.2549144,-0.996738 -2.2549144,-2.283833 0,-1.316128 0.8129419,-2.061328 1.6839088,-2.312941 3.4064478,-0.996774 7.2193588,-1.470893 11.3709678,-1.470893 z m -0.464592,8.245086 c 6.280639,0 12.348392,1.558068 17.129033,4.403226 0.78387,0.464515 1.093623,1.06463 1.093623,1.906565 -0.0097,1.04516 -0.822619,1.887097 -1.877457,1.887097 -0.503225,0 -0.841822,-0.222694 -1.190209,-0.406565 -6.048381,-3.580642 -15.067901,-5.022617 -23.090474,-2.845199 -0.464516,0.125806 -0.715978,0.251764 -1.151461,0.251764 -1.0354834,0 -1.8774575,-0.841975 -1.8774575,-1.877457 0,-1.035483 0.5032268,-1.722694 1.4999995,-2.00334 2.69032,-0.754837 5.438601,-1.316091 9.464403,-1.316091 z m 0.256868,7.865549 c 4.915349,-0.01909 9.698781,1.009895 14.017326,3.592553 0.590321,0.37742 0.938823,0.71613 0.938823,1.596775 0,0.880644 -0.687211,1.49036 -1.471081,1.49036 -0.406452,0 -0.657989,-0.125769 -1.035409,-0.348349 -6.038703,-3.638706 -13.064447,-3.793547 -20.00315,-2.370968 -0.377418,0.09677 -0.871005,0.251575 -1.151651,0.251575 -0.938708,0 -1.529107,-0.745238 -1.529107,-1.529108 0,-0.996773 0.590286,-1.470854 1.316091,-1.625693 2.972175,-0.656854 5.968948,-1.045691 8.918158,-1.057145 z"
     style="fill:#666666;fill-opacity:1;stroke-width:0.0967743" />
</svg>
