<?xml version="1.0" encoding="UTF-8" standalone="no"?>
<svg
   viewBox="0 0 48 48"
   fill="#ffffff"
   version="1.1"
   id="svg8"
   sodipodi:docname="steam-current.svg"
   width="48"
   height="48"
   inkscape:version="1.4.2 (ebf0e940d0, 2025-05-08)"
   xmlns:inkscape="http://www.inkscape.org/namespaces/inkscape"
   xmlns:sodipodi="http://sodipodi.sourceforge.net/DTD/sodipodi-0.dtd"
   xmlns="http://www.w3.org/2000/svg"
   xmlns:svg="http://www.w3.org/2000/svg">
  <sodipodi:namedview
     id="namedview8"
     pagecolor="#505050"
     bordercolor="#eeeeee"
     borderopacity="1"
     inkscape:showpageshadow="0"
     inkscape:pageopacity="0"
     inkscape:pagecheckerboard="0"
     inkscape:deskcolor="#505050"
     inkscape:zoom="6.3459081"
     inkscape:cx="8.982166"
     inkscape:cy="49.480704"
     inkscape:window-width="1890"
     inkscape:window-height="1015"
     inkscape:window-x="12"
     inkscape:window-y="12"
     inkscape:window-maximized="1"
     inkscape:current-layer="svg8" />
  <defs
     id="defs7">
    <linearGradient
       id="A"
       x2="0.5"
       x1="0.5"
       y2="1"
       y1="0">
      <stop
         stop-color="#111d2e"
         offset="0%"
         id="stop1" />
      <stop
         stop-color="#051839"
         offset="21.2%"
         id="stop2" />
      <stop
         stop-color="#0a1b48"
         offset="40.7%"
         id="stop3" />
      <stop
         stop-color="#132e62"
         offset="58.1%"
         id="stop4" />
      <stop
         stop-color="#144b7e"
         offset="73.8%"
         id="stop5" />
      <stop
         stop-color="#136497"
         offset="87.3%"
         id="stop6" />
      <stop
         stop-color="#1387b8"
         offset="100%"
         id="stop7" />
    </linearGradient>
  </defs>
  <path
     id="path12"
     style="fill:#fff59d;fill-opacity:1;stroke-width:0.75"
     d="M 23.974365,0 C 11.255865,0 0.84763493,9.894035 0.02563488,22.404785 c 0.003743,0.0062 0.007976,0.01278 0.0117188,0.01904 1.033e-4,-0.0018 -3.567e-5,-0.0023 0,-0.0029 v -0.0015 L 12.932373,27.735374 a 6.105,6.105 0 0 1 1.123535,-0.600586 c 0.226066,-0.09301 0.455758,-0.172889 0.687012,-0.240235 0.231707,-0.06743 0.466343,-0.122568 0.70166,-0.164062 0.470624,-0.08299 0.946873,-0.11403 1.422363,-0.09229 l 5.872559,-8.53125 -0.0015,-0.118652 h -0.0073 c 0,-3.461892 1.93258,-6.479595 4.773926,-8.027343 0.516611,-0.281408 1.062774,-0.5133207 1.633301,-0.6914067 0.855784,-0.267132 1.766032,-0.411615 2.708496,-0.411621 2.832891,0.00592 5.362522,1.3014677 7.034179,3.3295897 0.37148,0.450694 0.700856,0.937579 0.981446,1.45459 0.701475,1.292528 1.100097,2.772597 1.100097,4.346191 0,3.147188 -1.595919,5.928248 -4.020996,7.571777 -0.242508,0.164353 -0.494617,0.317675 -0.752929,0.458496 -1.291287,0.703719 -2.770781,1.104492 -4.341797,1.104492 l -0.206543,-0.0029 -8.39502,6.00293 a 6.6675,6.6675 0 0 1 -0.512695,2.742188 6.66,6.66 0 0 1 -7.879395,3.868652 6.66,6.66 0 0 1 -0.823242,-0.28125 C 12.475855,38.805767 11.294083,37.634052 10.610535,36.22559 10.382686,35.756103 10.210339,35.260528 10.097839,34.749028 L 1.0144044,31.000488 C 4.0114522,40.837293 13.157577,48 23.974365,48 c 13.25475,0 24,-10.74525 24,-24 0,-13.25475 -10.74525,-24 -24,-24 z m 7.88086,11.907715 a 6.09,6.09 0 0 0 -6.074707,6.082031 6.09,6.09 0 0 0 6.074707,6.084961 6.09,6.09 0 0 0 6.074706,-6.084961 6.09,6.09 0 0 0 -6.074706,-6.082031 z m 0.0088,1.501465 c 1.572636,2.4e-5 2.961455,0.799473 3.782226,2.015625 0.164156,0.24323 0.306277,0.504381 0.421875,0.777832 0.231194,0.546901 0.358887,1.147388 0.358887,1.77832 a 4.5675,4.5675 0 0 1 -4.562988,4.568847 4.5675,4.5675 0 0 1 -4.40625,-3.386718 4.5675,4.5675 0 0 1 -0.155274,-1.182129 h 0.0015 a 4.5675,4.5675 0 0 1 0.03808,-0.596191 4.5675,4.5675 0 0 1 4.521972,-3.975586 z M 16.635498,28.158691 c -0.641625,-0.0053 -1.274461,0.110451 -1.866211,0.33545 l 3.074707,1.271484 a 3.7875,3.7875 0 0 1 2.037598,4.949707 3.78,3.78 0 0 1 -4.943848,2.040527 l -2.967773,-1.230468 a 5.13,5.13 0 0 0 2.642577,2.520996 c 0.163454,0.06811 0.327687,0.127069 0.493653,0.177246 4.35e-4,1.31e-4 10e-4,-1.32e-4 0.0015,0 1.825222,0.551274 3.769068,0.03242 5.078613,-1.253906 0.357239,-0.350905 0.666321,-0.758366 0.914063,-1.217285 0.08258,-0.152974 0.158894,-0.312013 0.227051,-0.476075 h -0.0058 c 0.526526,-1.2645 0.529325,-2.66482 0.0073,-3.934571 -0.522,-1.269749 -1.496485,-2.263277 -2.771485,-2.790527 -0.62925,-0.261375 -1.28025,-0.387252 -1.921875,-0.392578 z" />
</svg>
