<?xml version="1.0" encoding="UTF-8" standalone="no"?>
<!-- Created with Inkscape (http://www.inkscape.org/) -->

<svg
   width="48"
   height="48"
   viewBox="0 0 48 48"
   version="1.1"
   id="svg1"
   xml:space="preserve"
   inkscape:version="1.4.2 (ebf0e940d0, 2025-05-08)"
   sodipodi:docname="vlc-current.svg"
   xmlns:inkscape="http://www.inkscape.org/namespaces/inkscape"
   xmlns:sodipodi="http://sodipodi.sourceforge.net/DTD/sodipodi-0.dtd"
   xmlns="http://www.w3.org/2000/svg"
   xmlns:svg="http://www.w3.org/2000/svg"><sodipodi:namedview
     id="namedview1"
     pagecolor="#505050"
     bordercolor="#eeeeee"
     borderopacity="1"
     inkscape:showpageshadow="0"
     inkscape:pageopacity="0"
     inkscape:pagecheckerboard="0"
     inkscape:deskcolor="#505050"
     inkscape:document-units="px"
     inkscape:zoom="6.8103143"
     inkscape:cx="-3.9645747"
     inkscape:cy="44.344503"
     inkscape:window-width="1890"
     inkscape:window-height="1015"
     inkscape:window-x="12"
     inkscape:window-y="12"
     inkscape:window-maximized="1"
     inkscape:current-layer="layer1" /><defs
     id="defs1" /><g
     inkscape:label="Layer 1"
     inkscape:groupmode="layer"
     id="layer1"><path
       style="fill:#fff59d;stroke:none;stroke-width:0.11957;fill-opacity:1"
       d="m 18.816957,8.3231502 h 10.28304 c -0.38113,-1.64744 -0.93473,-3.28552 -1.43189,-4.90238 -0.25498,-0.82924 -0.39953,-1.71284 -0.99882,-2.38025 -1.28139,-1.42702998 -4.30715,-1.38341998 -5.51721,0.11321 -0.55006,0.68034 -0.68704,1.57276 -0.94106,2.38661 -0.4911,1.57348 -1.0227,3.17758 -1.39406,4.78281 m -2.51098,8.1307698 -2.27183,7.77207 c 6.2995,2.12765 13.54928,2.12761 19.84866,0 l -2.3914,-7.77207 c -4.79253,1.23996 -10.37784,0.99178 -15.18543,0 m 19.25081,13.51144 c 0.0906,0.43753 0.43044,1.10714 0.29349,1.54325 -0.38105,1.21343 -3.41097,1.79212 -4.47844,2.05899 -4.5271,1.13178 -9.67769,1.18883 -14.22886,0.14614 -1.35171,-0.30967 -2.70599,-0.69866 -3.94582,-1.32782 -0.38211,-0.1939 -0.98934,-0.42787 -1.13048,-0.87731 -0.13694,-0.43611 0.20294,-1.10573 0.29349,-1.54325 -1.46363,0 -3.3716501,-0.33532 -4.6627801,0.49425 -1.00669,0.64681 -1.28935,1.92075 -1.69705,2.97329 -0.90958,2.34822 -1.7824,4.71078 -2.70325,7.05465 -0.92039,2.3427 -2.37183003,5.6929 0.81273,7.11092 0.44932,0.20008 0.94598,0.28851 1.43484,0.30068 9.0746701,0.22582 18.1841701,0.002 27.2620201,0.002 h 7.41335 c 1.2522,0 2.67555,0.19349 3.82625,-0.40687 1.33738,-0.69777 1.9726,-2.19949 1.75757,-3.65852 -0.18309,-1.24238 -0.86538,-2.54241 -1.32699,-3.70668 -0.73928,-1.86463 -1.41299,-3.75521 -2.15226,-5.6198 -0.48456,-1.22216 -0.80665,-3.02899 -1.87022,-3.88216 -1.29133,-1.03586 -3.35417,-0.66151 -4.89759,-0.66151 z"
       id="path1" /></g></svg>
