<?xml version="1.0" encoding="UTF-8" standalone="no"?>
<svg
   viewBox="0 0 48 48"
   fill="none"
   version="1.1"
   id="svg11"
   sodipodi:docname="vscode-current.svg"
   width="48"
   height="48"
   inkscape:export-filename="../.dotfiles/nixos/modules/wm/xmonad/eww/config/shared/topbar/workspaces-bar/icons/vscode-current.png"
   inkscape:export-xdpi="96"
   inkscape:export-ydpi="96"
   inkscape:version="1.4.2 (ebf0e940d0, 2025-05-08)"
   xmlns:inkscape="http://www.inkscape.org/namespaces/inkscape"
   xmlns:sodipodi="http://sodipodi.sourceforge.net/DTD/sodipodi-0.dtd"
   xmlns="http://www.w3.org/2000/svg"
   xmlns:svg="http://www.w3.org/2000/svg">
  <sodipodi:namedview
     id="namedview11"
     pagecolor="#505050"
     bordercolor="#eeeeee"
     borderopacity="1"
     inkscape:showpageshadow="0"
     inkscape:pageopacity="0"
     inkscape:pagecheckerboard="0"
     inkscape:deskcolor="#505050"
     inkscape:zoom="5.3079202"
     inkscape:cx="1.5071817"
     inkscape:cy="20.53535"
     inkscape:window-width="1890"
     inkscape:window-height="1015"
     inkscape:window-x="12"
     inkscape:window-y="12"
     inkscape:window-maximized="1"
     inkscape:current-layer="svg11" />
  <mask
     id="mask0"
     mask-type="alpha"
     maskUnits="userSpaceOnUse"
     x="0"
     y="0"
     width="100"
     height="100">
    <path
       fill-rule="evenodd"
       clip-rule="evenodd"
       d="m 70.9119,99.3171 c 1.575,0.6136 3.3709,0.5743 4.9606,-0.1907 L 96.4608,89.2197 C 98.6242,88.1787 100,85.9892 100,83.5872 V 16.4133 c 0,-2.402 -1.3757,-4.5915 -3.5391,-5.6325 L 75.8725,0.873756 C 73.7862,-0.130129 71.3446,0.11576 69.5135,1.44695 69.252,1.63711 69.0028,1.84943 68.769,2.08341 L 29.3551,38.0415 12.1872,25.0096 C 10.589,23.7965 8.35363,23.8959 6.86933,25.2461 l -5.5063,5.0088 c -1.815582,1.6515 -1.817663,4.5078 -0.0045,6.1621 L 16.2471,50.0001 1.35853,63.5832 c -1.813163,1.6542 -1.811082,4.5106 0.0045,6.1621 l 5.5063,5.0088 c 1.4843,1.3502 3.71967,1.4496 5.31787,0.2364 L 29.3551,61.9587 68.769,97.9167 c 0.6235,0.6239 1.3556,1.0937 2.1429,1.4004 z M 75.0152,27.2989 45.1091,50.0001 75.0152,72.7012 Z"
       fill="#ffffff"
       id="path1" />
  </mask>
  <path
     id="path14"
     style="fill:#fff59d;fill-opacity:1;stroke-width:0.47971"
     d="m 35.074069,0.13940061 c -0.614129,0.005828 -1.219791,0.20134728 -1.727705,0.57059226 -0.125444,0.0912264 -0.244815,0.1931977 -0.356971,0.30544023 L 14.08583,18.260624 5.8501877,12.013154 c -0.052591,-0.0399 -0.1075644,-0.07507 -0.1630265,-0.108685 -0.00718,-0.0044 -0.014327,-0.0088 -0.021549,-0.01312 -0.00615,-0.0037 -0.012556,-0.0067 -0.018738,-0.01031 -0.02645,-0.0155 -0.052684,-0.03174 -0.079639,-0.04591 -0.022043,-0.01142 -0.044212,-0.02216 -0.066522,-0.03279 0.011136,0.0053 0.021728,0.01225 0.032792,0.0178 -0.7265195,-0.364805 -1.6186396,-0.257288 -2.238333,0.306377 l -2.64121458,2.402296 c -0.0449595,0.0409 -0.0852227,0.08454 -0.12554906,0.12836 -0.001486,0.0016 -0.003205,0.0031 -0.004685,0.0047 -0.0107035,0.01171 -0.0224184,0.02277 -0.0327927,0.03467 -0.003913,0.0045 -0.008314,0.0086 -0.0121801,0.01312 -0.69100213,0.806939 -0.63437894,2.039153 0.1723957,2.775196 l 7.14224134,6.51637 -7.14224134,6.51637 c -0.81536746,0.743882 -0.86437458,1.994255 -0.1499093,2.800493 0.0476903,0.05382 0.098222,0.105958 0.15272011,0.155531 l 2.64121453,2.402297 c 0.57036,0.51883 1.3717017,0.651489 2.0621898,0.385079 9.172e-4,-3.55e-4 0.00189,-5.81e-4 0.00281,-9.37e-4 0.021649,-0.0084 0.04323,-0.01706 0.064649,-0.02623 0.00384,-0.0016 0.00741,-0.004 0.011243,-0.0056 0.029908,-0.01304 0.05961,-0.02664 0.089009,-0.04122 -0.029451,0.01465 -0.059047,0.02813 -0.089009,0.04122 0.034906,-0.01512 0.06979,-0.03056 0.1039996,-0.04778 0.00186,-9.36e-4 0.00377,-0.0019 0.00562,-0.0028 0.00532,-0.0027 0.010624,-0.0057 0.015928,-0.0084 0.046523,-0.02414 0.092737,-0.04969 0.137729,-0.07777 0.051321,-0.03203 0.1018352,-0.06495 0.1508467,-0.102126 l 8.2356421,-6.24747 18.903563,17.245192 c 0.299099,0.299243 0.65014,0.524654 1.027815,0.671781 0.455569,0.177454 0.949499,0.238564 1.437256,0.180828 -0.04029,0.0048 -0.0805,0.01188 -0.120865,0.01499 0.0488,-0.0033 0.09745,-0.01115 0.146162,-0.01686 0.01062,-0.0014 0.02124,-0.0023 0.03186,-0.0037 0.308936,-0.03967 0.614951,-0.125615 0.906951,-0.266089 l 9.882771,-4.753062 c 1.038475,-0.499377 1.698659,-1.548915 1.698659,-2.701178 V 7.8897113 c 0,-1.1522624 -0.660232,-2.2027371 -1.698659,-2.702115 L 36.418568,0.43453454 c -0.134783,-0.0648183 -0.272426,-0.11711245 -0.41225,-0.15927863 -0.04077,-0.0122951 -0.08167,-0.0241629 -0.122739,-0.0346665 -0.03041,-0.007776 -0.06127,-0.0128525 -0.09182,-0.0196756 0.02459,0.005586 0.04951,0.008702 0.07402,0.0149909 -0.06877,-0.0171413 -0.138485,-0.031668 -0.207999,-0.0440359 -0.0011,-2.0988e-4 -0.0026,-7.2834e-4 -0.0037,-9.3693e-4 -0.02345,-0.004394 -0.04677,-0.008355 -0.07027,-0.0121801 -0.0059,-9.6333e-4 -0.01188,-9.4657e-4 -0.0178,-0.001874 -0.0047,-6.9297e-4 -0.0094,-0.001201 -0.01405,-0.001874 0.0013,1.8444e-4 0.0025,7.51e-4 0.0037,9.3694e-4 -0.110669,-0.0169367 -0.221553,-0.0292369 -0.332612,-0.0337296 -0.04413,-0.001785 -0.08803,-0.002981 -0.132107,-0.002811 -0.0056,-3.0558e-4 -0.01132,-9.298e-5 -0.01687,0 z m 0.243603,0.0103063 c 0.04368,0.002997 0.08753,0.006277 0.13117,0.0112432 -0.04361,-0.004758 -0.08746,-0.008416 -0.13117,-0.0112432 z m 0.557475,0.098378 c 0.04034,0.0107345 0.08083,0.0184373 0.120864,0.0309188 -0.03996,-0.0125213 -0.0806,-0.0201416 -0.120864,-0.0309188 z M 35.985705,13.127167 V 34.875259 L 21.652502,24.001213 Z M 5.6806026,36.101704 c -0.015734,0.0097 -0.031857,0.01799 -0.047783,0.02717 0.015913,-0.0092 0.032062,-0.01754 0.047783,-0.02717 z M 36.388586,47.57164 c -0.09123,0.04354 -0.184621,0.08156 -0.278269,0.115243 0.09382,-0.03368 0.186914,-0.07165 0.278269,-0.115243 z m -0.344791,0.135855 c -0.07311,0.02438 -0.146064,0.04802 -0.220179,0.06652 0.07406,-0.01843 0.147124,-0.04222 0.220179,-0.06652 z m -0.292323,0.08151 c -0.07352,0.01642 -0.14702,0.0305 -0.221117,0.04122 0.07393,-0.01069 0.147746,-0.02489 0.221117,-0.04122 z" />
  <defs
     id="defs11">
    <filter
       id="filter0_d"
       x="-8.3941097"
       y="15.8291"
       width="116.727"
       height="92.245598"
       filterUnits="userSpaceOnUse"
       color-interpolation-filters="sRGB">
      <feFlood
         flood-opacity="0"
         result="BackgroundImageFix"
         id="feFlood6" />
      <feColorMatrix
         in="SourceAlpha"
         type="matrix"
         values="0 0 0 0 0 0 0 0 0 0 0 0 0 0 0 0 0 0 127 0"
         id="feColorMatrix6" />
      <feOffset
         id="feOffset6" />
      <feGaussianBlur
         stdDeviation="4.16667"
         id="feGaussianBlur6" />
      <feColorMatrix
         type="matrix"
         values="0 0 0 0 0 0 0 0 0 0 0 0 0 0 0 0 0 0 0.25 0"
         id="feColorMatrix7" />
      <feBlend
         mode="overlay"
         in2="BackgroundImageFix"
         result="effect1_dropShadow"
         id="feBlend7" />
      <feBlend
         mode="normal"
         in="SourceGraphic"
         in2="effect1_dropShadow"
         result="shape"
         id="feBlend8" />
    </filter>
    <filter
       id="filter1_d"
       x="60.416698"
       y="-8.0755796"
       width="47.916698"
       height="116.151"
       filterUnits="userSpaceOnUse"
       color-interpolation-filters="sRGB">
      <feFlood
         flood-opacity="0"
         result="BackgroundImageFix"
         id="feFlood8" />
      <feColorMatrix
         in="SourceAlpha"
         type="matrix"
         values="0 0 0 0 0 0 0 0 0 0 0 0 0 0 0 0 0 0 127 0"
         id="feColorMatrix8" />
      <feOffset
         id="feOffset8" />
      <feGaussianBlur
         stdDeviation="4.16667"
         id="feGaussianBlur8" />
      <feColorMatrix
         type="matrix"
         values="0 0 0 0 0 0 0 0 0 0 0 0 0 0 0 0 0 0 0.25 0"
         id="feColorMatrix9" />
      <feBlend
         mode="overlay"
         in2="BackgroundImageFix"
         result="effect1_dropShadow"
         id="feBlend9" />
      <feBlend
         mode="normal"
         in="SourceGraphic"
         in2="effect1_dropShadow"
         result="shape"
         id="feBlend10" />
    </filter>
    <linearGradient
       id="paint0_linear"
       x1="49.939201"
       y1="0.25781199"
       x2="49.939201"
       y2="99.742302"
       gradientUnits="userSpaceOnUse">
      <stop
         stop-color="white"
         id="stop10" />
      <stop
         offset="1"
         stop-color="white"
         stop-opacity="0"
         id="stop11" />
    </linearGradient>
  </defs>
</svg>
