<?xml version="1.0" encoding="UTF-8" standalone="no"?>
<svg
   height="48"
   viewBox="0 -960 960 960"
   width="48"
   version="1.1"
   id="svg1"
   sodipodi:docname="reboot.svg"
   inkscape:version="1.3.2 (091e20ef0f, 2023-11-25, custom)"
   xmlns:inkscape="http://www.inkscape.org/namespaces/inkscape"
   xmlns:sodipodi="http://sodipodi.sourceforge.net/DTD/sodipodi-0.dtd"
   xmlns="http://www.w3.org/2000/svg"
   xmlns:svg="http://www.w3.org/2000/svg">
  <defs
     id="defs1" />
  <sodipodi:namedview
     id="namedview1"
     pagecolor="#ffffff"
     bordercolor="#000000"
     borderopacity="0.25"
     inkscape:showpageshadow="2"
     inkscape:pageopacity="0.0"
     inkscape:pagecheckerboard="0"
     inkscape:deskcolor="#d1d1d1"
     inkscape:zoom="4.9166667"
     inkscape:cx="23.898305"
     inkscape:cy="24"
     inkscape:window-width="1896"
     inkscape:window-height="1017"
     inkscape:window-x="12"
     inkscape:window-y="51"
     inkscape:window-maximized="1"
     inkscape:current-layer="svg1" />
  <path
     d="M404-114q-112-25-185.5-116T145-439q0-66 26-125t74-102q8-12 23.5-12.5T296-668q9 10 9.5 23.5T296-620q-37 35-57.5 82T218-439q0 92 55 161t142 91q12 4 21 14.5t9 23.5q0 19-13 29t-28 6Zm155 0q-16 4-28.5-6T518-148q0-12 8.5-23.5T548-187q87-21 141.5-90.5T744-439q0-109-74-186t-183-77h-18l31 31q10 11 8 25.5T497-622q-11 11-26.5 11T445-622l-92-91q-5-5-8-11.5t-3-13.5q0-7 3-13.5t8-12.5l92-92q10-10 25-10t27 11q11 12 11.5 26t-8.5 23l-31 31h18q138 0 234 99t96 237q0 119-73 209.5T559-114Z"
     id="path1"
     style="fill:#388e3c;fill-opacity:1" />
</svg>
