<?xml version="1.0" encoding="UTF-8" standalone="no"?>
<svg
   height="48"
   viewBox="0 -960 960 960"
   width="48"
   version="1.1"
   id="svg1"
   sodipodi:docname="logout.svg"
   inkscape:version="1.3.2 (091e20ef0f, 2023-11-25, custom)"
   xmlns:inkscape="http://www.inkscape.org/namespaces/inkscape"
   xmlns:sodipodi="http://sodipodi.sourceforge.net/DTD/sodipodi-0.dtd"
   xmlns="http://www.w3.org/2000/svg"
   xmlns:svg="http://www.w3.org/2000/svg">
  <defs
     id="defs1" />
  <sodipodi:namedview
     id="namedview1"
     pagecolor="#ffffff"
     bordercolor="#000000"
     borderopacity="0.25"
     inkscape:showpageshadow="2"
     inkscape:pageopacity="0.0"
     inkscape:pagecheckerboard="0"
     inkscape:deskcolor="#d1d1d1"
     inkscape:zoom="4.9166667"
     inkscape:cx="23.898305"
     inkscape:cy="24"
     inkscape:window-width="1896"
     inkscape:window-height="1017"
     inkscape:window-x="12"
     inkscape:window-y="51"
     inkscape:window-maximized="1"
     inkscape:current-layer="svg1" />
  <path
     d="M177-104q-29 0-51-22t-22-51v-606q0-29 22-51t51-22h266q14.775 0 25.388 10.675Q479-834.649 479-819.509q0 15.141-10.612 25.825Q457.775-783 443-783H177v606h266q14.775 0 25.388 10.675Q479-155.649 479-140.509q0 15.141-10.612 25.825Q457.775-104 443-104H177Zm538-340H394q-15.75 0-26.375-10.86Q357-465.719 357-480.86q0-15.14 10.625-25.64T394-517h319l-80-80q-11-11-10.5-26.143t11.5-26Q645-660 660.283-659.5 675.565-659 687-649l144 144q10 11.364 10 26.182Q841-464 831-454L688-311q-10.8 11-25.9 10.5-15.1-.5-26.491-11.5Q625-323.133 624.5-338.567 624-354 636-365l79-79Z"
     id="path1"
     style="fill:#388e3c;fill-opacity:1" />
</svg>
